<svg width="66" height="49" viewBox="0 0 66 49" fill="none" xmlns="http://www.w3.org/2000/svg">
<path d="M64.7885 20.9513L53.6251 1.93049C53.4024 1.55466 53.0404 1.28325 52.6158 1.17885C52.1913 1.07446 51.7459 1.14405 51.37 1.36675L44.4525 5.58432C43.7078 6.03669 43.4572 6.99713 43.8748 7.75573L42.1695 8.73705C41.3831 8.68137 39.8661 8.57698 38.9126 8.54218C37.7156 8.50738 35.1822 9.24511 34.6811 9.39822C34.4445 9.46782 34.2219 9.53741 34.0062 9.60701C32.315 8.8832 29.2872 7.67221 27.7282 7.55389C26.5033 7.46342 24.0327 7.97147 22.7939 8.24986L20.9772 7.21288C21.3461 6.46123 21.0954 5.54952 20.3716 5.1041L13.5023 0.865657C13.1265 0.635988 12.6675 0.566399 12.2429 0.677754C11.8114 0.789109 11.4494 1.06749 11.2336 1.45723L0.258567 20.9791C-0.165973 21.7308 0.0701668 22.6842 0.800933 23.1505L7.64235 27.5143C7.90681 27.6813 8.21356 27.7718 8.51978 27.7718C8.65202 27.7718 8.78379 27.7578 8.91602 27.723C9.15265 27.6604 9.36835 27.549 9.55626 27.3959L10.6423 28.1337C10.4614 28.6348 10.3569 29.1776 10.3569 29.7413C10.3569 31.7248 11.6795 33.5692 13.4194 34.3347C13.6143 35.0585 14.1012 35.8659 15.0268 36.701C15.681 37.2926 16.3558 37.7311 17.01 37.9955C17.0657 39.2204 17.6647 40.5567 19.0218 41.7398C19.7317 42.3592 20.4969 42.7559 21.2416 42.9369C21.2625 42.9926 21.2837 43.0482 21.3116 43.097C21.9936 44.6211 24.0741 45.9156 25.8558 45.9156C26.67 45.9156 27.4778 45.6094 28.2155 45.1153L29.3635 46.4863C29.3635 46.4863 29.3849 46.5142 29.3988 46.5211C29.9486 47.1405 30.8182 48.0175 31.9944 48.4768C32.5094 48.6786 33.0316 48.7761 33.5535 48.7761C34.6045 48.7761 35.6412 48.3654 36.5807 47.5651C37.4089 46.8552 37.8685 46.0479 38.0773 45.2405C38.307 45.2962 38.5433 45.338 38.7869 45.3588C38.9122 45.3728 39.0307 45.3728 39.1559 45.3728C40.2208 45.3728 41.258 44.9691 42.1627 44.1896C42.9353 43.5285 43.3872 42.8047 43.6308 42.0808C43.9997 42.2061 44.3897 42.2966 44.8073 42.3314C44.9325 42.3453 45.0646 42.3453 45.1899 42.3453C46.2965 42.3453 47.3616 41.9347 48.2803 41.1413C49.3173 40.2574 49.8043 39.2274 49.9713 38.2461C50.0896 38.26 50.2078 38.2809 50.3261 38.2878C50.4235 38.2878 50.5212 38.3018 50.6326 38.3018C51.5026 38.3018 52.6786 38.0303 53.827 36.9237C56.235 34.5992 55.2331 31.6204 53.9595 30.1728L53.0542 29.0941L55.5044 27.3681C55.6992 27.5421 55.936 27.6604 56.1935 27.723C56.3188 27.7509 56.444 27.7648 56.5762 27.7648C56.8824 27.7648 57.1885 27.6743 57.4529 27.5073L64.2944 23.1436C65.0321 22.6703 65.2686 21.7029 64.8231 20.9443L64.7885 20.9513ZM38.808 11.7924C40.0329 11.8272 42.3925 12.015 42.4203 12.015C42.7474 12.0359 43.0743 11.9663 43.3596 11.8063L45.5243 10.5674L53.7577 24.6051L50.9663 26.5747L45.0859 19.093C44.8702 18.8216 44.5779 18.6198 44.2438 18.5293L37.7783 16.7407C37.2215 16.5876 36.6299 16.7407 36.2124 17.1374C36.0523 17.2905 32.2935 20.9513 31.3331 21.8769C29.9829 23.1923 28.5772 23.2549 27.8186 22.5033C26.8999 21.5916 26.9 20.5337 28.2781 18.7729C28.9392 17.9308 30.6999 15.9612 32.0223 14.5414C32.3563 14.1865 32.6628 13.8524 32.9412 13.5532C33.7485 12.9755 37.8614 11.7924 38.808 11.7924ZM3.84239 21.2297L13.2312 4.52645L17.3302 7.0528L7.9278 23.8395L3.83559 21.2297H3.84239ZM19.4323 30.2494C19.8499 29.8179 20.5111 29.6717 20.9704 30.0893C21.381 30.4651 21.5548 31.0985 20.9772 31.7875C20.9772 31.7875 19.2162 33.8058 18.2001 34.9681C17.7199 34.7662 16.7803 33.9589 16.4602 33.5204C16.4602 33.5204 19.0774 30.6113 19.4323 30.2494ZM14.5538 31.2655C14.0457 30.9523 13.6002 30.2981 13.6002 29.7413C13.6002 28.9897 14.1708 28.3772 14.8807 28.3772C15.4444 28.3772 15.8761 28.8227 16.3215 29.3446C15.7926 29.9153 15.2148 30.5417 14.5606 31.2655H14.5538ZM20.7475 38.8933C20.3368 38.3783 20.1421 37.7241 20.337 37.4805C21.4992 36.2208 23.9006 33.4369 24.1512 33.1934C24.5548 32.7897 25.3274 32.3791 26.0651 32.9915C26.7819 33.5831 26.6493 34.2999 26.3152 34.7662C25.835 35.3439 22.6687 39.0743 22.0354 39.7911C21.7083 39.7494 21.0328 39.2552 20.7475 38.9003V38.8933ZM25.8354 42.6585C25.3134 42.6794 24.7568 42.2966 24.4366 41.9904C24.4506 41.9695 24.471 41.9556 24.4849 41.9347C25.7376 40.5428 26.2877 39.9025 27.1994 38.8098C27.3038 38.6915 27.4011 38.5801 27.4985 38.4757C27.749 38.949 27.965 39.6519 27.8954 40.2226C27.8536 40.6054 27.5196 41.2387 26.9976 41.872C26.4895 42.4915 26.1346 42.6446 25.8354 42.6585ZM51.5372 34.5853C50.1314 35.678 49.1574 34.4183 48.6215 33.7988C48.6076 33.7849 48.5933 33.764 48.5794 33.7501L45.1621 29.6717C44.5844 28.9827 43.5545 28.8923 42.8655 29.4699C42.1765 30.0476 42.086 31.0776 42.6636 31.7666L44.3342 33.7571L46.0667 35.8241C46.1641 35.9424 47.5427 37.4875 46.1299 38.6776C44.9328 39.6937 43.5824 38.4201 43.1231 37.8981C41.5154 36.0468 39.7613 33.9937 39.7404 33.9728C39.1419 33.2977 38.112 33.2351 37.4439 33.8336C36.7688 34.4322 36.706 35.4622 37.3046 36.1303C37.3185 36.1512 38.4808 37.4387 39.824 39.0325C40.5339 39.8816 40.9936 40.8977 40.0123 41.7259C38.8848 42.6724 37.6385 41.4127 37.1931 40.8699C35.7385 39.0882 35.9267 39.3039 35.5021 38.782C35.0915 38.2739 34.0964 37.7311 33.2334 38.4549C32.0224 39.4849 32.9826 40.849 32.9826 40.849C33.1079 41.0439 33.5187 41.5241 34.5975 42.8395C34.9107 43.2083 35.5299 44.2036 34.6322 44.9761C34.138 45.4006 33.3098 46.0479 31.8204 44.3775L30.4074 42.6863C30.7972 42.0043 31.0547 41.2805 31.1312 40.6054C31.3122 39.0464 30.6652 36.9307 29.496 35.7336C30.011 34.2373 29.6006 32.1285 27.9233 30.5904C26.8167 29.5813 25.4596 29.1776 24.179 29.456C23.9215 28.8366 23.5174 28.3007 23.0372 27.8831C21.7566 26.7696 20.1071 26.526 18.75 27.1384C17.8452 25.9414 16.3981 25.1132 14.8739 25.1132C14.1153 25.1132 13.3913 25.308 12.7649 25.649L11.2336 24.6051L19.3834 10.0524L21.7357 11.3887C22.0976 11.5905 22.5221 11.6531 22.9258 11.5557C24.603 11.152 26.8307 10.7484 27.4849 10.7902C28.0208 10.8319 29.0923 11.1729 30.2824 11.6114C30.0805 11.8341 29.8582 12.0638 29.6285 12.3074C28.0835 13.9568 26.3361 15.829 25.5914 16.8938C22.8562 20.8121 24.2066 23.4916 25.8143 25.0505C29.3289 28.4538 32.565 25.2245 33.6229 24.1597C34.3119 23.4707 36.6296 21.2227 37.7919 20.1022L42.8444 21.5011C42.8444 21.5011 51.4535 32.2816 51.4604 32.2886C51.7875 32.6783 52.4491 33.8545 51.5304 34.5714L51.5372 34.5853ZM57.0982 23.8604L47.5218 7.53302L51.6555 5.01362L61.1904 21.2505L57.0982 23.8604Z" fill="#003641"/>
</svg>
