<svg width="66" height="73" viewBox="0 0 66 73" fill="none" xmlns="http://www.w3.org/2000/svg">
<path d="M60.6315 22.4829L52.6954 22.4367C56.1891 21.195 58.7028 17.8632 58.726 13.9453C58.7568 8.94759 54.7082 4.85999 49.7106 4.82914C46.6564 4.81372 43.9493 6.31763 42.2911 8.62365C41.8206 4.15815 38.0493 0.648988 33.4527 0.625851C28.9178 0.602713 25.1386 3.98076 24.5525 8.36143C22.9097 6.12482 20.272 4.66717 17.295 4.65175C12.2973 4.6209 8.21021 8.66993 8.17936 13.6676C8.15622 17.5855 10.639 20.9404 14.1173 22.2284L6.2279 22.1821C3.33573 22.1667 0.975667 24.5036 0.960242 27.3958L0.852539 47.4172C0.852539 48.4121 1.64623 49.2297 2.64885 49.2297L8.0709 49.2605L7.97073 67.2922C7.97073 68.2871 8.76517 69.1046 9.76779 69.1046L22.2312 69.174V70.9402C22.2158 71.9428 23.0174 72.7526 24.02 72.7603L42.1216 72.8606C43.1243 72.8606 43.9336 72.0585 43.9413 71.0636V69.2974L56.5975 69.3669C57.5924 69.3669 58.4104 68.5725 58.4104 67.5698L58.5106 49.5381L63.9319 49.569C64.9268 49.569 65.7448 48.7746 65.7448 47.772L65.8525 27.7505C65.8679 24.8583 63.5312 22.4984 60.639 22.4829H60.6315ZM49.6872 8.43856C52.6951 8.45398 55.1322 10.9142 55.1168 13.9221C55.1014 16.9299 52.6416 19.3671 49.6337 19.3517C46.6259 19.3363 44.1887 16.876 44.2041 13.8681C44.2196 10.8603 46.6794 8.42313 49.6872 8.43856ZM33.4293 4.24299C36.3601 4.25841 38.7282 6.65698 38.7128 9.58771C38.6974 12.5184 36.2983 14.8862 33.3676 14.8707C30.4368 14.8553 28.0694 12.4567 28.0848 9.52602C28.1003 6.59529 30.4986 4.22756 33.4293 4.24299ZM33.3525 18.4879C36.3449 18.5033 38.9976 17.0379 40.6326 14.7859C40.7637 16.1433 41.2036 17.4159 41.8746 18.5342L33.3525 18.4879L24.969 18.4416C25.6245 17.3773 26.0641 16.1664 26.226 14.8707C27.8456 17.0534 30.4295 18.4725 33.3525 18.4879ZM11.781 13.6753C11.7964 10.6675 14.2562 8.23032 17.2641 8.24575C20.2719 8.26117 22.7091 10.7214 22.6937 13.7293C22.6782 16.7371 20.2185 19.1743 17.2106 19.1589C14.2027 19.1434 11.7656 16.6832 11.781 13.6753ZM18.7139 65.5338L18.784 52.8545C18.784 51.8596 17.9895 51.0421 16.9869 51.0421C15.9843 51.0421 15.174 51.8365 15.174 52.8391L15.1047 65.5184L11.5724 65.4952L11.6726 47.4635C11.6726 47.4635 11.6726 47.4481 11.6726 47.4327L11.7501 33.0952C11.7501 32.1003 10.9557 31.2828 9.95307 31.2828C8.95045 31.2828 8.14019 32.0772 8.14019 33.0798L8.0709 45.6434L4.45419 45.6203L4.55436 27.4035C4.55436 26.5011 5.29466 25.7761 6.19702 25.7838L15.2049 25.8301L15.0972 45.5431C15.0972 46.5457 15.8994 47.3555 16.8943 47.3632L22.3239 47.3941L22.2237 65.5569L18.7064 65.5338H18.7139ZM40.5249 30.581L40.3088 69.2203L34.8792 69.1895L35.0102 45.6511C35.0102 44.6485 34.2088 43.8387 33.2139 43.831C32.219 43.8233 31.4012 44.633 31.3935 45.6279L31.2625 69.1663L25.8329 69.1355L26.049 30.4961C26.049 29.4935 25.2469 28.6837 24.252 28.676C23.2571 28.6683 22.4393 29.4781 22.4316 30.473L22.3547 43.7615L18.7297 43.7384L18.8299 25.4754C18.8376 23.5627 20.4029 22.0202 22.3156 22.0279L44.3503 22.1513C46.2629 22.159 47.8052 23.7246 47.7975 25.6373L47.6973 43.9004L44.0806 43.8772L44.1575 30.5887C44.1575 29.5861 43.3553 28.7763 42.3604 28.7685C41.3655 28.7608 40.5484 29.5707 40.5407 30.5656L40.5249 30.581ZM62.1273 45.9364L58.5106 45.9133L58.5799 33.3497C58.5799 32.3548 57.7854 31.5373 56.7828 31.5373C55.7802 31.5373 54.9707 32.3317 54.9707 33.3343L54.8931 47.6717C54.8931 47.6717 54.8931 47.6872 54.8931 47.7026L54.7929 65.7343L51.1762 65.7112L51.2455 53.0165C51.2455 52.0216 50.4511 51.2041 49.4485 51.2041C48.4458 51.2041 47.6356 51.9985 47.6356 53.0011L47.5663 65.6957L43.9496 65.6726L44.0497 47.5098L49.4793 47.5406C50.482 47.5406 51.2913 46.7385 51.299 45.7436L51.4074 26.0306L60.6006 26.0846C61.503 26.0846 62.2276 26.825 62.2199 27.7274L62.1198 45.9442L62.1273 45.9364Z" fill="#003641"/>
</svg>
