<svg width="66" height="66" viewBox="0 0 66 66" fill="none" xmlns="http://www.w3.org/2000/svg">
<g clip-path="url(#clip0_6244_2347)">
<path d="M62.7443 21.861C60.7853 15.637 58.013 10.0527 54.9396 6.13684C51.536 1.79862 48.0278 -0.0725583 45.059 0.859896C44.022 1.18605 43.1585 1.8028 42.456 2.65372C41.4797 3.536 28.7139 15.037 23.646 18.9884C20.1315 21.7293 3.45605 31.2922 3.28879 31.3884C3.23653 31.4176 3.18635 31.4511 3.13826 31.4866C0.257274 33.5899 -0.428478 39.0215 1.46779 44.6936C3.26998 50.0793 7.78799 53.4077 11.1603 53.4056C11.3506 53.4056 11.5366 53.3951 11.7185 53.3742C11.7582 53.37 11.798 53.3638 11.8356 53.3554C11.8732 53.3491 12.6092 53.207 13.8029 52.9833L16.709 64.4884C16.8909 65.2097 17.5411 65.7156 18.2854 65.7156H28.072C28.9689 65.7156 29.6944 64.9902 29.6986 64.0954L29.7383 50.2173C32.2367 49.8388 34.3525 49.565 35.5233 49.521C40.5661 49.3245 55.2783 49.4061 58.2283 49.4249C58.383 49.4374 58.5398 49.4458 58.6946 49.4458C59.2256 49.4458 59.7566 49.3663 60.2793 49.2012C63.2481 48.2666 65.0503 44.7208 65.3555 39.2181C65.6315 34.2484 64.7032 28.083 62.7443 21.8589V21.861ZM11.292 50.1504C9.75325 50.28 6.05062 48.1475 4.55158 43.6629C3.82192 41.4802 3.52086 39.2557 3.70485 37.395C3.85538 35.8667 4.32578 34.6938 4.99481 34.1585C5.32514 33.9683 6.35586 33.3766 7.79844 32.5403C7.46602 34.9509 7.42839 38.2605 8.618 41.8482C9.85152 45.5696 12.1116 48.0659 14.058 49.6319C12.6071 49.9016 11.5973 50.0939 11.2941 50.1524L11.292 50.1504ZM26.4496 62.4667H19.5503L17.0059 52.3937C19.7552 51.8919 23.2299 51.271 26.4831 50.7357L26.4496 62.4667ZM35.3936 46.2721C32.5127 46.385 24.7185 47.7 18.7475 48.7705C18.1056 48.4799 13.4956 46.2324 11.7018 40.8237C10.1024 35.9984 11.177 31.6894 11.6077 30.3137C16.7968 27.2613 23.4495 23.2639 25.6426 21.5537C29.0588 18.8922 35.6717 13.0717 40.1416 9.09309C39.4914 14.4725 40.5221 21.629 42.5919 28.2042C44.8185 35.2771 48.4146 42.2119 52.3555 46.1466C46.7169 46.1299 38.8935 46.1362 35.3936 46.2721ZM62.1087 39.0403C61.8933 42.9186 60.8187 45.6261 59.3009 46.1027C59.1461 46.1508 58.981 46.1738 58.8075 46.1801C58.7949 46.1801 58.7824 46.1801 58.7698 46.178C58.7405 46.178 58.6841 46.178 58.6088 46.178C55.4435 46.0024 49.5059 39.333 45.6946 27.23C41.5842 14.1756 43.123 4.88241 46.0353 3.96459C46.213 3.90814 46.4012 3.88096 46.6019 3.88096C48.1177 3.88096 50.2627 5.4469 52.3806 8.146C55.2177 11.7608 57.7956 16.9792 59.6416 22.8395C61.4856 28.6997 62.3616 34.4533 62.1087 39.0424V39.0403Z" fill="#003D43"/>
<path d="M49.458 13.7763C48.9771 13.678 48.4796 13.8014 48.1011 14.1129C47.7227 14.4244 47.5032 14.8885 47.5074 15.3778C47.5074 15.5283 47.5367 19.1013 48.4984 23.5754C49.8113 29.6949 52.1508 34.3593 55.4458 37.4368C55.7489 37.7211 56.1483 37.8737 56.556 37.8737C56.6647 37.8737 56.7755 37.8633 56.8842 37.8403C57.4006 37.7337 57.8334 37.3824 58.0445 36.8995C58.1574 36.6444 60.7562 30.5479 58.1825 23.1573C55.3684 15.0704 49.6984 13.8244 49.458 13.7742V13.7763ZM55.7866 32.9188C52.4038 28.2607 51.2957 21.7189 50.934 18.0769C52.2721 19.0762 53.9593 20.9139 55.1134 24.2256C56.3134 27.6711 56.1587 30.8134 55.7887 32.9167L55.7866 32.9188Z" fill="#003D43"/>
</g>
<defs>
<clipPath id="clip0_6244_2347">
<rect width="65" height="65.092" fill="white" transform="translate(0.401611 0.625732)"/>
</clipPath>
</defs>
</svg>
