<svg width="66" height="66" viewBox="0 0 66 66" fill="none" xmlns="http://www.w3.org/2000/svg">
<path d="M33.0028 10.8966C30.1706 10.8966 27.8674 8.59328 27.8674 5.76115C27.8674 2.92902 30.1706 0.625732 33.0028 0.625732C35.8349 0.625732 38.1381 2.92902 38.1381 5.76115C38.1381 8.59328 35.8349 10.8966 33.0028 10.8966ZM33.0028 3.88233C31.9659 3.88233 31.1238 4.72433 31.1238 5.76115C31.1238 6.79798 31.9659 7.63997 33.0028 7.63997C34.0396 7.63997 34.8817 6.79798 34.8817 5.76115C34.8817 4.72433 34.0396 3.88233 33.0028 3.88233Z" fill="#003641"/>
<path d="M52.354 18.9132C50.9831 18.9132 49.696 18.3774 48.7218 17.4102C46.7177 15.4061 46.7177 12.1495 48.7218 10.1524C49.689 9.18514 50.9831 8.64935 52.354 8.64935C53.7248 8.64935 55.0126 9.18514 55.9868 10.1524C57.9909 12.1564 57.9909 15.413 55.9868 17.4102C55.0196 18.3774 53.7248 18.9132 52.354 18.9132ZM52.354 11.899C51.853 11.899 51.3803 12.0938 51.0255 12.4487C50.2948 13.1793 50.2948 14.3762 51.0255 15.1069C51.3803 15.4618 51.853 15.6566 52.354 15.6566C52.855 15.6566 53.3283 15.4618 53.6832 15.1069C54.4138 14.3762 54.4138 13.1793 53.6832 12.4487C53.3283 12.0938 52.855 11.899 52.354 11.899Z" fill="#003641"/>
<path d="M60.3641 38.2647C57.532 38.2647 55.2288 35.9614 55.2288 33.1293C55.2288 30.2971 57.532 27.9938 60.3641 27.9938C63.1962 27.9938 65.4994 30.2971 65.4994 33.1293C65.4994 35.9614 63.1962 38.2647 60.3641 38.2647ZM60.3641 31.2504C59.3273 31.2504 58.4851 32.0924 58.4851 33.1293C58.4851 34.1661 59.3273 35.008 60.3641 35.008C61.4009 35.008 62.243 34.1661 62.243 33.1293C62.243 32.0924 61.4009 31.2504 60.3641 31.2504Z" fill="#003641"/>
<path d="M32.8776 51.0338C23.0034 51.0338 14.9729 43.0036 14.9729 33.1294C14.9729 23.2552 23.0034 15.225 32.8776 15.225C42.7518 15.225 50.7816 23.2552 50.7816 33.1294C50.7816 43.0036 42.7518 51.0338 32.8776 51.0338ZM32.8776 18.4747C24.7987 18.4747 18.23 25.0436 18.23 33.1225C18.23 41.2013 24.7987 47.7702 32.8776 47.7702C40.9565 47.7702 47.5252 41.2013 47.5252 33.1225C47.5252 25.0436 40.9565 18.4747 32.8776 18.4747Z" fill="#003641"/>
<path d="M52.354 57.6091C50.9831 57.6091 49.696 57.0733 48.7218 56.106C46.7177 54.1019 46.7177 50.8454 48.7218 48.8482C49.689 47.881 50.9831 47.3452 52.354 47.3452C53.7248 47.3452 55.0126 47.881 55.9868 48.8482C57.9909 50.8523 57.9909 54.1089 55.9868 56.106C55.0196 57.0733 53.7248 57.6091 52.354 57.6091ZM52.354 50.5948C51.853 50.5948 51.3803 50.7897 51.0255 51.1446C50.2948 51.8752 50.2948 53.0721 51.0255 53.8027C51.3803 54.1576 51.853 54.3525 52.354 54.3525C52.855 54.3525 53.3283 54.1576 53.6832 53.8027C54.4138 53.0721 54.4138 51.8752 53.6832 51.1446C53.3283 50.7897 52.855 50.5948 52.354 50.5948Z" fill="#003641"/>
<path d="M33.0028 65.626C30.1706 65.626 27.8674 63.3227 27.8674 60.4906C27.8674 57.6584 30.1706 55.3552 33.0028 55.3552C35.8349 55.3552 38.1381 57.6584 38.1381 60.4906C38.1381 63.3227 35.8349 65.626 33.0028 65.626ZM33.0028 58.6118C31.9659 58.6118 31.1238 59.4538 31.1238 60.4906C31.1238 61.5274 31.9659 62.3694 33.0028 62.3694C34.0396 62.3694 34.8817 61.5274 34.8817 60.4906C34.8817 59.4538 34.0396 58.6118 33.0028 58.6118Z" fill="#003641"/>
<path d="M13.6513 57.6091C12.2804 57.6091 10.9926 57.0733 10.0184 56.106C8.01436 54.1019 8.01436 50.8454 10.0184 48.8482C10.9857 47.881 12.2804 47.3452 13.6513 47.3452C15.0221 47.3452 16.3093 47.881 17.2835 48.8482C19.2875 50.8523 19.2875 54.1089 17.2835 56.106C16.3162 57.0733 15.0221 57.6091 13.6513 57.6091ZM13.6513 50.5948C13.1503 50.5948 12.677 50.7897 12.3221 51.1446C11.5914 51.8752 11.5914 53.0721 12.3221 53.8027C12.677 54.1576 13.1503 54.3525 13.6513 54.3525C14.1523 54.3525 14.6249 54.1576 14.9798 53.8027C15.7104 53.0721 15.7104 51.8752 14.9798 51.1446C14.6249 50.7897 14.1523 50.5948 13.6513 50.5948Z" fill="#003641"/>
<path d="M5.6346 38.2647C2.80247 38.2647 0.499268 35.9614 0.499268 33.1293C0.499268 30.2971 2.80247 27.9938 5.6346 27.9938C8.46673 27.9938 10.7699 30.2971 10.7699 33.1293C10.7699 35.9614 8.46673 38.2647 5.6346 38.2647ZM5.6346 31.2504C4.59778 31.2504 3.75565 32.0924 3.75565 33.1293C3.75565 34.1661 4.59778 35.008 5.6346 35.008C6.67143 35.008 7.51355 34.1661 7.51355 33.1293C7.51355 32.0924 6.67143 31.2504 5.6346 31.2504Z" fill="#003641"/>
<path d="M13.6513 18.9132C12.2804 18.9132 10.9926 18.3774 10.0184 17.4102C8.01436 15.4061 8.01436 12.1495 10.0184 10.1524C10.9857 9.18514 12.2804 8.64935 13.6513 8.64935C15.0221 8.64935 16.3093 9.18514 17.2835 10.1524C19.2875 12.1564 19.2875 15.413 17.2835 17.4102C16.3162 18.3774 15.0221 18.9132 13.6513 18.9132ZM13.6513 11.899C13.1503 11.899 12.677 12.0938 12.3221 12.4487C11.5914 13.1793 11.5914 14.3762 12.3221 15.1069C12.677 15.4618 13.1503 15.6566 13.6513 15.6566C14.1523 15.6566 14.6249 15.4618 14.9798 15.1069C15.7104 14.3762 15.7104 13.1793 14.9798 12.4487C14.6249 12.0938 14.1523 11.899 13.6513 11.899Z" fill="#003641"/>
<path d="M34.6309 47.9026H31.3745V56.9836H34.6309V47.9026Z" fill="#003641"/>
<path d="M21.341 42.4846L14.979 48.8466L17.2818 51.1493L23.6437 44.7873L21.341 42.4846Z" fill="#003641"/>
<path d="M44.5204 42.3477L42.2178 44.6503L48.7177 51.1502L51.0203 48.8476L44.5204 42.3477Z" fill="#003641"/>
<path d="M56.8566 31.501H47.6501V34.7576H56.8566V31.501Z" fill="#003641"/>
<path d="M48.72 15.1102L42.2153 21.6149L44.5181 23.9176L51.0228 17.4129L48.72 15.1102Z" fill="#003641"/>
<path d="M34.6309 9.26819H31.3745V18.3491H34.6309V9.26819Z" fill="#003641"/>
<path d="M17.2411 15.0638L14.9385 17.3665L21.0005 23.4284L23.3031 21.1258L17.2411 15.0638Z" fill="#003641"/>
<path d="M18.0976 31.501H9.14185V34.7576H18.0976V31.501Z" fill="#003641"/>
<path d="M32.9539 38.2646C28.7996 38.2646 25.4109 34.8827 25.4109 30.7215C25.4109 26.5603 28.7926 23.1784 32.9539 23.1784C37.1151 23.1784 40.4975 26.5603 40.4975 30.7215C40.4975 34.8827 37.1151 38.2646 32.9539 38.2646ZM32.9539 26.442C30.5949 26.442 28.668 28.3626 28.668 30.7285C28.668 33.0944 30.5879 35.0149 32.9539 35.0149C35.3198 35.0149 37.2404 33.0944 37.2404 30.7285C37.2404 28.3626 35.3198 26.442 32.9539 26.442Z" fill="#003641"/>
<path d="M25.1742 46.9974L22.064 46.0441C23.5392 41.2288 27.9232 38 32.9612 38C37.9992 38 42.313 41.187 43.823 45.9397L40.7196 46.9278C39.641 43.539 36.524 41.2566 32.9612 41.2566C29.3984 41.2566 26.2318 43.5668 25.181 47.0044L25.1742 46.9974Z" fill="#003641"/>
</svg>
