<svg width="66" height="66" viewBox="0 0 66 66" fill="none" xmlns="http://www.w3.org/2000/svg">
<path d="M65.4778 48.9066L59.7533 43.1825C59.4513 42.8806 59.0447 42.7099 58.618 42.7099C58.1913 42.7099 57.784 42.8806 57.4821 43.1825H57.4757L56.1692 41.8828C55.841 41.5546 55.6506 41.0951 55.6506 40.629V38.5284C55.6506 37.4847 55.3295 36.4804 54.7256 35.627L50.6421 29.9029C49.71 28.5901 48.1874 27.8089 46.5791 27.8089H43.4611C42.5683 27.8089 41.8527 28.5375 41.8527 29.4237C41.8527 29.7519 41.9513 30.0539 42.1219 30.3099C41.5968 30.9401 41.6228 31.8788 42.2136 32.4696L44.8855 35.1412C45.2006 35.4563 45.6138 35.6139 46.0208 35.6139C46.4278 35.6139 46.8482 35.4563 47.1567 35.1412C47.7869 34.5111 47.7869 33.4936 47.1567 32.8634L45.3252 31.032H46.5727C47.1438 31.032 47.6817 31.3077 48.0099 31.7737L52.0928 37.4978C52.3094 37.7998 52.421 38.1543 52.421 38.5284V40.629C52.421 41.9616 52.9399 43.2154 53.8851 44.1541L55.1916 45.4604L45.9945 54.657C44.7144 53.5936 43.1197 53.0093 41.4392 53.0093C40.3955 53.0093 39.411 52.6023 38.6692 51.8606L36.8307 50.0226L33.2011 46.3925C32.5709 45.7623 31.553 45.7623 30.9228 46.3925C30.2927 47.0227 30.2927 48.0401 30.9228 48.6703L34.5531 52.3004L36.391 54.1384C37.7366 55.4907 39.5356 56.2324 41.4392 56.2324C42.2663 56.2324 43.0476 56.4884 43.704 56.9545C43.4218 57.2499 43.2643 57.6438 43.2643 58.0573C43.2643 58.4709 43.4348 58.891 43.7367 59.1929L49.4606 64.917C49.7757 65.2321 50.1896 65.3897 50.5966 65.3897C51.0036 65.3897 51.4233 65.2321 51.7319 64.917L65.4778 51.1713C66.108 50.5412 66.108 49.5237 65.4778 48.8935V48.9066ZM50.5966 61.5101L47.1503 58.0639L58.618 46.596L62.0643 50.0423L50.5966 61.5101Z" fill="#003641"/>
<path d="M35.2883 48.9261C34.7697 48.2041 33.7655 48.0334 33.0434 48.552L28.849 51.5453C28.547 51.7619 28.1924 51.8735 27.8182 51.8735H25.7175C24.3849 51.8735 23.1312 52.3921 22.186 53.3374L20.8795 54.6437L11.683 45.447C12.7465 44.167 13.3305 42.5719 13.3305 40.8914C13.3305 39.8477 13.7375 38.863 14.4793 38.1213L16.3172 36.2833L21.0834 31.5175C21.7135 30.8874 21.7135 29.8699 21.0834 29.2397C20.4532 28.6095 19.4352 28.6095 18.8051 29.2397L14.0395 34.0054L12.2016 35.8434C10.8494 37.1891 10.1073 38.9877 10.1073 40.8914C10.1073 41.7054 9.84518 42.4997 9.37911 43.1561C9.08372 42.8738 8.68991 42.7163 8.28292 42.7163C7.87593 42.7163 7.44894 42.887 7.14698 43.1889L1.42307 48.913C0.792896 49.5432 0.792896 50.5607 1.42307 51.1908L15.1684 64.9365C15.4835 65.2516 15.8974 65.4092 16.3043 65.4092C16.7113 65.4092 17.1311 65.2516 17.4396 64.9365L23.1642 59.2124C23.4662 58.9105 23.6366 58.5035 23.6366 58.0768C23.6366 57.6501 23.4662 57.2431 23.1642 56.9412L24.47 55.6283C24.8048 55.2935 25.2513 55.1097 25.7239 55.1097H27.8246C28.8683 55.1097 29.8726 54.7881 30.726 54.1842L34.921 51.1908C35.6431 50.6722 35.8133 49.6679 35.2947 48.9458L35.2883 48.9261ZM16.3043 61.5099L4.83665 50.0421L8.28292 46.5958L19.7506 58.0637L16.3043 61.5099Z" fill="#003641"/>
<path d="M42.6859 14.0563C42.1017 13.4721 41.728 12.7369 41.5968 11.9426C42.4632 11.9164 43.159 11.2074 43.159 10.3344V2.23399C43.159 1.34124 42.4368 0.625732 41.5506 0.625732H22.1134C21.2207 0.625732 20.505 1.34781 20.505 2.23399V10.3344C20.505 11.2271 21.2272 11.9426 22.1134 11.9426H22.1205V13.7938C22.1205 14.2664 21.9366 14.7128 21.6018 15.0476L20.1178 16.5311C19.3761 17.2728 18.8968 18.205 18.7261 19.2356L17.5645 26.1675C17.302 27.7561 17.8205 29.384 18.9627 30.5197L22.1205 33.6771V43.5367C22.1205 45.762 23.9317 47.5803 26.1635 47.5803C26.6756 47.5803 27.1614 47.4819 27.6078 47.3112C28.3233 48.4468 29.5838 49.2017 31.0214 49.2017C32.459 49.2017 33.7195 48.4468 34.435 47.3112C34.8813 47.4819 35.3672 47.5803 35.8793 47.5803C38.1046 47.5803 39.9223 45.7686 39.9223 43.5367V42.6374C40.1849 42.6899 40.4606 42.7228 40.7429 42.7228C42.9682 42.7228 44.7866 40.911 44.7866 38.6857V19.1109C44.7866 17.2007 44.0452 15.4086 42.6929 14.0629L42.6859 14.0563ZM23.7218 3.84882H39.9358V8.72611H23.7218V3.84882ZM41.557 38.6857C41.557 39.1386 41.1894 39.5062 40.7365 39.5062C40.2835 39.5062 39.9159 39.1386 39.9159 38.6857V28.1565C39.9159 27.2638 39.1937 26.5482 38.3075 26.5482C37.4214 26.5482 36.6998 27.2703 36.6998 28.1565V43.5433C36.6998 43.9962 36.3322 44.3638 35.8793 44.3638C35.4263 44.3638 35.0587 43.9962 35.0587 43.5433V28.1565C35.0587 27.2638 34.3365 26.5482 33.4503 26.5482C32.5641 26.5482 31.8419 27.2703 31.8419 28.1565V45.1647C31.8419 45.6176 31.4743 45.9852 31.0214 45.9852C30.5685 45.9852 30.2009 45.6176 30.2009 45.1647V28.2024C30.2009 27.3097 29.4786 26.5942 28.5925 26.5942C27.7063 26.5942 26.9841 27.3163 26.9841 28.2024V43.5433C26.9841 43.9962 26.6165 44.3638 26.1635 44.3638C25.7106 44.3638 25.343 43.9962 25.343 43.5433V26.5351C25.343 25.6424 24.6214 24.9269 23.7352 24.9269C22.8491 24.9269 22.1269 25.6489 22.1269 26.5351V29.128L21.2403 28.2419C20.8333 27.8414 20.6495 27.2638 20.748 26.6992L21.9102 19.7673C21.9693 19.3997 22.1399 19.0715 22.4025 18.8089L23.8859 17.3254C24.8312 16.3801 25.35 15.1329 25.35 13.7938V11.9426H38.3601C38.5111 13.5968 39.227 15.1394 40.4217 16.3276C41.1635 17.0694 41.5705 18.054 41.5705 19.0977V38.6726L41.557 38.6857Z" fill="#003641"/>
</svg>
