<svg width="65" height="66" viewBox="0 0 65 66" fill="none" xmlns="http://www.w3.org/2000/svg">
<path d="M23.0558 32.1927V40.6079C23.0558 41.3474 23.652 41.9436 24.3914 41.9436H40.5225C41.262 41.9436 41.8581 41.3474 41.8581 40.6079V32.1927C41.8581 29.7335 39.8976 27.7329 37.4614 27.6526C38.1149 26.6896 38.4932 25.5259 38.4932 24.2763C38.4932 20.9457 35.7818 18.2343 32.4512 18.2343C29.1207 18.2343 26.4092 20.9457 26.4092 24.2763C26.4092 25.5259 26.7933 26.6896 27.4411 27.6526C25.0048 27.7386 23.0443 29.7393 23.0443 32.1927H23.0558ZM32.457 20.9056C34.3143 20.9056 35.8276 22.4189 35.8276 24.2763C35.8276 26.1336 34.3143 27.6469 32.457 27.6469C30.5997 27.6469 29.0863 26.1336 29.0863 24.2763C29.0863 22.4189 30.5997 20.9056 32.457 20.9056ZM25.7271 32.1927C25.7271 31.1552 26.5698 30.3182 27.6016 30.3182H37.3066C38.3442 30.3182 39.1811 31.1609 39.1811 32.1927V39.2723H25.7214V32.1927H25.7271Z" fill="#003641"/>
<path d="M6.67824 15.6599C6.84448 15.7861 7.02219 15.895 7.21136 15.9924V22.2465C7.21136 22.986 7.80753 23.5822 8.54702 23.5822H20.6711C21.4106 23.5822 22.0068 22.986 22.0068 22.2465V15.9924C22.1902 15.9007 22.3736 15.7918 22.5399 15.6599C23.2507 15.1154 23.6634 14.33 23.6634 13.5045C23.6634 12.6791 23.2564 11.8937 22.5399 11.3491L15.4202 5.93202C14.9559 5.57661 14.268 5.57661 13.7979 5.93202L6.67824 11.3491C5.96742 11.8937 5.55469 12.6791 5.55469 13.5045C5.55469 14.33 5.96168 15.1154 6.67824 15.6599ZM15.5979 20.9109H13.6202V17.8612H15.5979V20.9109ZM17.6788 20.9109V16.8236C17.6788 16.2504 17.2145 15.7861 16.6412 15.7861H12.5826C12.0094 15.7861 11.5451 16.2504 11.5451 16.8236V20.9109H9.8884V16.2676C10.3527 16.1529 10.7884 15.9466 11.1725 15.6599L14.6176 13.0402L18.0628 15.6599C18.4412 15.9523 18.8826 16.1529 19.3469 16.2676V20.9109H17.6902H17.6788ZM8.30052 13.4816L14.6119 8.68358L20.9233 13.4816C20.9233 13.4816 20.9463 13.4988 20.9577 13.5103C20.9463 13.516 20.9405 13.5275 20.9233 13.5389C20.608 13.7797 19.9889 13.7797 19.6737 13.5389L15.4202 10.3059C15.1794 10.1224 14.8985 10.0307 14.6119 10.0307C14.3253 10.0307 14.0444 10.1224 13.8037 10.3059L9.55019 13.5389C9.23491 13.7797 8.6158 13.7797 8.30052 13.5389C8.28905 13.5275 8.27759 13.5217 8.26612 13.5103C8.27759 13.5045 8.28332 13.4931 8.30052 13.4816Z" fill="#003641"/>
<path d="M50.2963 23.7601C55.2892 23.7601 59.3478 19.7015 59.3478 14.7086C59.3478 9.71562 55.2892 5.65704 50.2963 5.65704C45.3033 5.65704 41.2448 9.71562 41.2448 14.7086C41.2448 19.7015 45.3033 23.7601 50.2963 23.7601ZM50.2963 8.33411C53.8102 8.33411 56.6765 11.1946 56.6765 14.7143C56.6765 18.234 53.816 21.0945 50.2963 21.0945C46.7765 21.0945 43.9161 18.234 43.9161 14.7143C43.9161 11.1946 46.7765 8.33411 50.2963 8.33411Z" fill="#003641"/>
<path d="M50.365 17.7867C50.365 17.7867 50.3191 17.781 50.2962 17.781C50.2733 17.781 50.2503 17.781 50.2274 17.7867C49.6943 17.7523 49.2758 17.3109 49.2758 16.7721C49.2758 16.1988 48.8115 15.7345 48.2383 15.7345C47.665 15.7345 47.2007 16.1988 47.2007 16.7721C47.2007 18.1192 48.0605 19.26 49.2643 19.6899V19.7415C49.2643 20.3147 49.7287 20.779 50.3019 20.779C50.8752 20.779 51.3395 20.3147 51.3395 19.7415V19.6899C52.5376 19.26 53.4032 18.1192 53.4032 16.7721C53.4032 15.0638 52.0102 13.6708 50.3019 13.6708C49.7401 13.6708 49.2815 13.2122 49.2815 12.6505C49.2815 12.0887 49.7401 11.6301 50.3019 11.6301C50.7146 11.6301 51.0815 11.8766 51.242 12.2549C51.4656 12.7823 52.0732 13.0288 52.6064 12.8052C53.1337 12.5817 53.3802 11.974 53.1567 11.4409C52.8127 10.6212 52.142 10.0136 51.3395 9.72693V9.66388C51.3395 9.09064 50.8752 8.62628 50.3019 8.62628C49.7287 8.62628 49.2643 9.09064 49.2643 9.66388V9.72693C48.0663 10.1569 47.2007 11.2976 47.2007 12.6447C47.2007 14.353 48.5936 15.746 50.3019 15.746C50.8637 15.746 51.3223 16.2046 51.3223 16.7663C51.3223 17.3281 50.8981 17.7466 50.3707 17.781L50.365 17.7867Z" fill="#003641"/>
<path d="M58.5338 44.9356C57.7944 44.3452 56.6421 43.5369 55.3638 43.0382C54.0912 42.5395 52.6982 42.5681 51.4371 43.1242L50.4339 43.5713L47.2811 41.7656C46.9257 41.565 46.5015 41.5306 46.1231 41.6853L43.2626 42.8146C42.8499 42.9809 42.5461 43.3363 42.4486 43.772C42.3512 44.2076 42.483 44.6605 42.7869 44.9815L44.1168 46.3745L43.3888 46.6955L41.2334 45.5777C40.8436 45.377 40.385 45.377 39.9952 45.5777L37.4098 46.942C37.0659 47.1197 36.8194 47.4407 36.7334 47.8191C36.6417 48.1974 36.7219 48.5929 36.9455 48.9025L41.0098 54.5776C41.3767 55.0878 42.0474 55.2769 42.6206 55.0304L46.3754 53.4311L46.2149 55.0591C46.1747 55.4374 46.3008 55.8101 46.5531 56.0909C46.8053 56.3718 47.1664 56.5323 47.5448 56.5323H50.2906C50.8581 56.5323 51.3626 56.1769 51.5517 55.6438L53.409 50.4387L58.0638 48.4553C58.7287 48.1687 59.1873 47.5668 59.2848 46.8388C59.3822 46.1108 59.1013 45.4 58.5281 44.9471L58.5338 44.9356ZM46.0945 44.563L46.5072 44.3968L47.4015 44.907L46.7136 45.2108L46.0887 44.5573L46.0945 44.563ZM54.2861 47.1426C54.1657 46.7585 53.8734 46.4318 53.4664 46.2885C52.7728 46.042 52.0046 46.4031 51.7581 47.0968L49.3505 53.8438H49.0237L49.4479 49.619C49.5225 48.8853 48.9836 48.2318 48.2499 48.1572C47.5104 48.0827 46.8626 48.6216 46.7881 49.3553L46.6849 50.3872L42.5633 52.147L40.0181 48.5929L40.6315 48.2719L42.7353 49.3611C43.0964 49.5502 43.5206 49.5617 43.8932 49.3955L52.5263 45.5662C53.1224 45.3025 53.7874 45.2853 54.3893 45.5261C54.974 45.7554 55.5358 46.0821 56.023 46.4089L54.2861 47.1483V47.1426Z" fill="#003641"/>
<path d="M25.0048 51.6369C25.5781 51.6369 26.0424 51.1726 26.0424 50.5993C26.0424 50.0261 25.5781 49.5617 25.0048 49.5617H24.3914C25.1882 47.7102 25.0621 45.5261 24.0532 43.7949C23.1762 42.293 21.7545 41.3758 20.1609 41.2784C20.0348 41.2727 19.9087 41.2669 19.7826 41.2669C17.8221 41.2669 16.4119 41.9204 15.5463 42.4937C14.6807 41.9204 13.2705 41.2669 11.31 41.2669C11.1782 41.2669 11.0521 41.2669 10.9317 41.2784C9.33807 41.3758 7.91644 42.293 7.03937 43.7949C5.97887 45.6121 5.89289 47.928 6.82154 49.8312C6.60944 50.0203 6.4776 50.2955 6.4776 50.5993C6.4776 51.1726 6.94192 51.6369 7.51517 51.6369H7.81898C9.55018 54.4286 11.9234 56.6871 14.8928 58.3667C15.0992 58.4814 15.3227 58.5387 15.552 58.5387C15.7813 58.5387 16.0049 58.4814 16.2113 58.3667C19.1807 56.6871 21.5539 54.4286 23.2851 51.6369H25.022H25.0048ZM9.33807 45.1363C9.58457 44.7121 10.1406 43.9956 11.0865 43.9382C11.1553 43.9382 11.2298 43.9325 11.3043 43.9325C13.454 43.9325 14.4973 45.0446 14.5259 45.079C14.7782 45.3713 15.1508 45.5433 15.5406 45.5433C15.9304 45.5433 16.2972 45.3713 16.5552 45.079C16.5667 45.0675 17.6386 43.9325 19.7768 43.9325C19.8513 43.9325 19.9259 43.9325 19.9947 43.9382C20.9405 43.9956 21.4966 44.7121 21.7431 45.1363C22.3507 46.1796 22.4023 47.5611 21.8634 48.656C21.7144 48.9656 21.5539 49.2637 21.3876 49.556H17.7132C17.3635 49.556 17.0425 49.728 16.8476 50.0203L16.6756 50.2783L15.81 46.7471C15.7011 46.3114 15.3342 45.9962 14.8871 45.9618C14.4457 45.9274 14.0215 46.1739 13.8438 46.5866L12.554 49.5675H9.68775C9.52151 49.2751 9.361 48.977 9.21196 48.6675C8.67884 47.5669 8.72471 46.1853 9.33234 45.1478L9.33807 45.1363ZM15.5406 55.6496C13.7807 54.5604 12.2845 53.2133 11.0635 51.6369H13.2419C13.6546 51.6369 14.0329 51.3904 14.1934 51.012L14.5317 50.2382L15.2253 53.07C15.3227 53.4713 15.6495 53.7751 16.0565 53.8439C16.1138 53.8553 16.1769 53.8611 16.2342 53.8611C16.5781 53.8611 16.9049 53.6891 17.0998 53.3967L18.2749 51.6369H20.0176C18.7966 53.2133 17.3004 54.5547 15.5406 55.6496Z" fill="#003641"/>
<path d="M56.7682 24.5571C56.0573 24.752 55.6331 25.4858 55.828 26.1966C56.3898 28.2717 56.6764 30.4042 56.6764 32.5424C56.6764 34.6806 56.3898 36.8188 55.828 38.8882C55.6331 39.599 56.0573 40.3327 56.7682 40.5276C56.8828 40.562 57.0032 40.5735 57.1178 40.5735C57.7083 40.5735 58.2471 40.1837 58.4076 39.5875C59.0325 37.2888 59.3478 34.9156 59.3478 32.5424C59.3478 30.1692 59.0325 27.7959 58.4076 25.4972C58.2127 24.7864 57.479 24.3622 56.7682 24.5571Z" fill="#003641"/>
<path d="M40.104 55.5177C37.6333 56.3374 35.0594 56.7559 32.4626 56.7559C29.8659 56.7559 27.292 56.3374 24.8213 55.5177C24.122 55.2827 23.3653 55.6667 23.1303 56.3661C22.8952 57.0654 23.2736 57.8221 23.9787 58.0572C26.7245 58.9686 29.5792 59.4329 32.4684 59.4329C35.3575 59.4329 38.2123 58.9686 40.9581 58.0572C41.6575 57.8221 42.0358 57.0654 41.8065 56.3661C41.5715 55.6667 40.8148 55.2884 40.1154 55.5177H40.104Z" fill="#003641"/>
<path d="M7.80755 40.579C7.9222 40.579 8.04258 40.5618 8.15723 40.5331C8.86805 40.3382 9.29225 39.6045 9.09735 38.8937C8.53557 36.8185 8.24895 34.6861 8.24895 32.5479C8.24895 30.4097 8.53557 28.2715 9.09735 26.2021C9.29225 25.4912 8.86805 24.7575 8.15723 24.5626C7.44641 24.3677 6.71266 24.7919 6.51775 25.5027C5.89292 27.8014 5.57764 30.1746 5.57764 32.5479C5.57764 34.9211 5.89292 37.2943 6.51775 39.593C6.67826 40.1892 7.21711 40.579 7.80755 40.579Z" fill="#003641"/>
<path d="M24.8156 9.5723C27.2863 8.75256 29.8602 8.33411 32.457 8.33411C35.0538 8.33411 37.6276 8.75256 40.0983 9.5723C40.2359 9.61816 40.3792 9.64109 40.5225 9.64109C41.0843 9.64109 41.6059 9.28569 41.7894 8.72391C42.0244 8.02456 41.646 7.26787 40.941 7.03284C38.1951 6.12138 35.3404 5.65704 32.4512 5.65704C29.5621 5.65704 26.7073 6.12138 23.9615 7.03284C23.2622 7.26787 22.8838 8.02456 23.1131 8.72391C23.3481 9.42327 24.1048 9.8016 24.8042 9.5723H24.8156Z" fill="#003641"/>
</svg>
