<?xml version="1.0" encoding="utf-8"?>
<!-- Generator: Adobe Illustrator 28.1.0, SVG Export Plug-In . SVG Version: 6.00 Build 0)  -->
<svg version="1.1" id="Layer_1" xmlns="http://www.w3.org/2000/svg" xmlns:xlink="http://www.w3.org/1999/xlink" x="0px" y="0px"
	 viewBox="0 0 500 500" style="enable-background:new 0 0 500 500;" xml:space="preserve">
<style type="text/css">
	.st0{fill:#003641;}
</style>
<g>
	<rect x="28" y="136" class="st0" width="12" height="12"/>
	<polygon class="st0" points="40,184 52,184 52,172 52,160 64,160 64,148 76,148 88,148 100,148 100,136 88,136 76,136 64,136 
		64,124 52,124 40,124 40,136 52,136 52,148 40,148 40,160 40,172 28,172 28,184 28,196 40,196 	"/>
	<rect x="40" y="364" class="st0" width="12" height="12"/>
	<polygon class="st0" points="64,208 64,196 52,196 52,208 52,220 64,220 	"/>
	<polygon class="st0" points="64,268 64,256 64,244 76,244 76,232 64,232 52,232 52,220 40,220 40,208 28,208 28,220 28,232 40,232 
		40,244 52,244 52,256 52,268 52,280 64,280 	"/>
	<polygon class="st0" points="64,292 52,292 52,280 40,280 40,292 28,292 28,304 40,304 40,316 28,316 28,328 28,340 40,340 52,340 
		52,352 64,352 76,352 76,364 88,364 88,352 88,340 76,340 76,328 88,328 88,316 76,316 64,316 64,328 52,328 52,316 52,304 64,304 
		76,304 88,304 88,292 76,292 	"/>
	<rect x="76" y="160" class="st0" width="12" height="12"/>
	<polygon class="st0" points="76,208 76,220 76,232 88,232 88,220 100,220 100,208 88,208 88,196 88,184 76,184 64,184 64,196 
		76,196 	"/>
	<rect x="100" y="124" class="st0" width="12" height="12"/>
	<rect x="100" y="148" class="st0" width="12" height="12"/>
	<rect x="100" y="172" class="st0" width="12" height="12"/>
	<rect x="100" y="196" class="st0" width="12" height="12"/>
	<rect x="100" y="220" class="st0" width="12" height="12"/>
	<rect x="100" y="244" class="st0" width="12" height="12"/>
	<polygon class="st0" points="112,280 112,268 100,268 88,268 88,280 88,292 100,292 100,280 	"/>
	<rect x="100" y="316" class="st0" width="12" height="12"/>
	<rect x="124" y="136" class="st0" width="12" height="12"/>
	<polygon class="st0" points="136,172 124,172 124,184 124,196 136,196 136,184 	"/>
	<polygon class="st0" points="124,448 124,460 136,460 148,460 148,448 136,448 136,436 124,436 	"/>
	<polygon class="st0" points="136,124 136,136 148,136 148,124 148,112 136,112 	"/>
	<rect x="136" y="196" class="st0" width="12" height="12"/>
	<polygon class="st0" points="148,292 148,280 160,280 172,280 172,268 184,268 184,256 172,256 160,256 160,268 148,268 148,256 
		148,244 136,244 136,232 136,220 124,220 124,232 124,244 124,256 136,256 136,268 124,268 124,280 124,292 136,292 	"/>
	<polygon class="st0" points="136,364 136,352 124,352 124,340 112,340 100,340 100,352 112,352 112,364 100,364 100,376 112,376 
		124,376 136,376 148,376 148,388 160,388 160,376 160,364 148,364 	"/>
	<rect x="136" y="424" class="st0" width="12" height="12"/>
	<rect x="148" y="148" class="st0" width="12" height="12"/>
	<rect x="148" y="172" class="st0" width="12" height="12"/>
	<path class="st0" d="M172,100V88V76V64V52V40h-12V28h-12h-12v12h12v12h12v12h-12V52h-12V40h-12v12v12v12h12v12h-12v12v12h12v-12h12
		v12h12v-12H172z M148,88V76h12v12H148z"/>
	<rect x="172" y="100" class="st0" width="12" height="12"/>
	<rect x="172" y="148" class="st0" width="12" height="12"/>
	<polygon class="st0" points="172,172 172,184 160,184 160,196 160,208 148,208 148,220 160,220 160,232 160,244 172,244 172,232 
		172,220 172,208 172,196 184,196 184,184 196,184 196,172 208,172 208,160 196,160 184,160 184,172 	"/>
	<polygon class="st0" points="196,88 196,76 196,64 184,64 184,76 184,88 184,100 196,100 	"/>
	<path class="st0" d="M196,340v-12h-12v-12v-12h12v-12h12v-12h12h12h12v-12h-12v-12h-12v12h-12v-12h12v-12h-12v-12v-12v-12h-12h-12
		v12h12v12h-12v12h12v12v12h-12v12v12h-12v12h-12h-12h-12h-12v-12h-12h-12v12h12v12h12v12v12h12h12h12v12v12h12v-12h12v-12H196z
		 M136,328v-12h12v12H136z"/>
	<rect x="184" y="352" class="st0" width="12" height="12"/>
	<rect x="196" y="100" class="st0" width="12" height="12"/>
	<rect x="196" y="316" class="st0" width="12" height="12"/>
	<rect x="196" y="340" class="st0" width="12" height="12"/>
	<polygon class="st0" points="208,76 220,76 220,64 232,64 232,76 244,76 244,88 256,88 256,76 256,64 244,64 244,52 256,52 256,40 
		244,40 232,40 232,52 220,52 220,40 232,40 232,28 220,28 208,28 208,40 208,52 196,52 196,64 208,64 	"/>
	<rect x="208" y="88" class="st0" width="12" height="12"/>
	<rect x="220" y="76" class="st0" width="12" height="12"/>
	<polygon class="st0" points="232,100 220,100 220,112 220,124 232,124 232,112 	"/>
	<polygon class="st0" points="220,220 232,220 232,208 244,208 244,220 232,220 232,232 244,232 256,232 256,220 256,208 268,208 
		268,220 268,232 268,244 280,244 280,232 292,232 304,232 304,244 316,244 316,256 316,268 328,268 328,256 328,244 328,232 
		316,232 316,220 316,208 328,208 328,196 340,196 340,184 352,184 352,172 340,172 328,172 328,184 316,184 316,196 304,196 
		304,208 292,208 280,208 280,196 268,196 268,184 268,172 256,172 256,184 244,184 244,196 232,196 232,184 232,172 244,172 
		244,160 244,148 244,136 256,136 256,124 244,124 232,124 232,136 220,136 208,136 196,136 196,124 196,112 184,112 184,124 
		172,124 172,112 160,112 160,124 160,136 172,136 184,136 184,148 196,148 208,148 220,148 232,148 232,160 220,160 220,172 
		220,184 220,196 208,196 208,208 220,208 	"/>
	<rect x="220" y="232" class="st0" width="12" height="12"/>
	<polygon class="st0" points="232,436 244,436 244,424 232,424 220,424 220,436 220,448 208,448 208,436 196,436 184,436 172,436 
		172,424 184,424 196,424 208,424 208,412 196,412 196,400 208,400 208,388 208,376 208,364 196,364 196,376 196,388 184,388 
		184,376 172,376 172,388 172,400 184,400 184,412 172,412 172,400 160,400 148,400 136,400 136,412 148,412 148,424 160,424 
		160,436 160,448 160,460 160,472 172,472 172,460 184,460 184,472 196,472 196,460 208,460 220,460 232,460 232,448 	"/>
	<rect x="232" y="244" class="st0" width="12" height="12"/>
	<polygon class="st0" points="244,304 244,292 232,292 220,292 220,304 208,304 208,316 220,316 232,316 232,304 	"/>
	<polygon class="st0" points="244,388 232,388 232,400 232,412 244,412 244,400 	"/>
	<rect x="244" y="100" class="st0" width="12" height="12"/>
	<polygon class="st0" points="256,376 268,376 268,388 280,388 280,376 280,364 280,352 280,340 268,340 256,340 256,352 244,352 
		232,352 232,364 244,364 244,376 244,388 256,388 	"/>
	<polygon class="st0" points="244,448 244,460 232,460 232,472 244,472 256,472 256,460 256,448 256,436 244,436 	"/>
	<rect x="256" y="28" class="st0" width="12" height="12"/>
	<polygon class="st0" points="256,52 256,64 268,64 268,76 280,76 280,88 292,88 304,88 304,76 292,76 292,64 280,64 280,52 280,40 
		268,40 268,52 	"/>
	<polygon class="st0" points="268,100 268,112 280,112 280,100 280,88 268,88 256,88 256,100 	"/>
	<rect x="256" y="112" class="st0" width="12" height="12"/>
	<polygon class="st0" points="256,160 268,160 268,148 268,136 256,136 256,148 	"/>
	<rect x="256" y="244" class="st0" width="12" height="12"/>
	<rect x="256" y="292" class="st0" width="12" height="12"/>
	<polygon class="st0" points="268,328 280,328 280,316 292,316 292,328 280,328 280,340 292,340 304,340 304,328 304,316 304,304 
		304,292 292,292 292,304 280,304 268,304 268,316 256,316 256,304 244,304 244,316 232,316 232,328 220,328 220,340 232,340 
		244,340 256,340 256,328 	"/>
	<rect x="256" y="388" class="st0" width="12" height="12"/>
	<polygon class="st0" points="268,256 268,268 256,268 256,280 268,280 268,292 280,292 292,292 292,280 280,280 280,268 292,268 
		292,256 304,256 304,244 292,244 280,244 280,256 	"/>
	<polygon class="st0" points="268,412 256,412 244,412 244,424 256,424 256,436 268,436 268,424 280,424 280,412 	"/>
	<polygon class="st0" points="268,448 268,460 280,460 292,460 292,448 280,448 	"/>
	<rect x="280" y="400" class="st0" width="12" height="12"/>
	<rect x="292" y="100" class="st0" width="12" height="12"/>
	<rect x="292" y="184" class="st0" width="12" height="12"/>
	<polygon class="st0" points="292,268 292,280 304,280 316,280 316,268 304,268 	"/>
	<rect x="304" y="88" class="st0" width="12" height="12"/>
	<polygon class="st0" points="316,112 304,112 304,124 292,124 280,124 268,124 268,136 280,136 280,148 280,160 280,172 280,184 
		292,184 292,172 292,160 304,160 304,148 316,148 316,136 328,136 328,124 316,124 	"/>
	<rect x="304" y="172" class="st0" width="12" height="12"/>
	<rect x="316" y="100" class="st0" width="12" height="12"/>
	<rect x="316" y="148" class="st0" width="12" height="12"/>
	<polygon class="st0" points="316,304 316,316 316,328 328,328 328,316 328,304 328,292 316,292 	"/>
	<polygon class="st0" points="316,460 316,472 328,472 340,472 340,460 340,448 328,448 328,460 	"/>
	<polygon class="st0" points="340,124 352,124 352,112 352,100 340,100 340,112 328,112 328,124 	"/>
	<rect x="328" y="208" class="st0" width="12" height="12"/>
	<polygon class="st0" points="352,208 364,208 364,196 352,196 340,196 340,208 	"/>
	<rect x="340" y="436" class="st0" width="12" height="12"/>
	<rect x="352" y="28" class="st0" width="12" height="12"/>
	<polygon class="st0" points="364,88 376,88 376,76 364,76 352,76 352,64 364,64 364,52 352,52 352,40 340,40 340,52 328,52 316,52 
		316,40 328,40 328,28 316,28 304,28 304,40 304,52 304,64 316,64 316,76 328,76 328,64 340,64 340,76 340,88 352,88 352,100 
		364,100 	"/>
	<rect x="352" y="124" class="st0" width="12" height="12"/>
	<polygon class="st0" points="352,328 364,328 364,340 376,340 376,352 388,352 388,340 400,340 400,328 388,328 388,316 388,304 
		388,292 376,292 376,304 364,304 352,304 352,316 	"/>
	<polygon class="st0" points="352,340 340,340 328,340 316,340 316,352 328,352 328,364 328,376 316,376 316,364 316,352 304,352 
		304,364 304,376 292,376 292,388 304,388 304,400 316,400 328,400 328,412 316,412 316,424 304,424 304,412 292,412 292,424 
		280,424 280,436 292,436 292,448 304,448 304,460 316,460 316,448 328,448 328,436 328,424 340,424 352,424 352,412 340,412 
		340,400 340,388 340,376 340,364 340,352 352,352 364,352 364,340 	"/>
	<rect x="364" y="100" class="st0" width="12" height="12"/>
	<rect x="376" y="124" class="st0" width="12" height="12"/>
	<polygon class="st0" points="376,460 376,472 388,472 400,472 400,460 400,448 388,448 388,460 	"/>
	<rect x="388" y="244" class="st0" width="12" height="12"/>
	<rect x="388" y="280" class="st0" width="12" height="12"/>
	<rect x="388" y="388" class="st0" width="12" height="12"/>
	<rect x="400" y="196" class="st0" width="12" height="12"/>
	<polygon class="st0" points="412,304 424,304 436,304 436,316 424,316 412,316 400,316 400,328 412,328 424,328 436,328 448,328 
		448,316 448,304 448,292 436,292 424,292 412,292 400,292 400,304 	"/>
	<rect x="412" y="460" class="st0" width="12" height="12"/>
	<path class="st0" d="M436,340h-12h-12h-12v12v12h-12h-12v-12h-12v12h-12v12v12h12v12v12v12v12v12v12h12v-12h12v-12h12h12h12v-12h12
		v12h-12v12v12h12h12v-12h12v12v12h12v-12v-12v-12v-12v-12h-12v12h-12v-12v-12v-12h-12h-12v-12h12h12v-12v-12h12h12v-12v-12v-12h-12
		v12h-12v12H436z M436,400v12h-12v-12H436z M412,388v12v12h-12h-12h-12v-12v-12v-12h12h12h12V388z M436,364h-12h-12v-12h12h12V364z"
		/>
	<path class="st0" d="M448,172h-12v-12v-12h12v-12h12v-12h-12h-12h-12v12v12v12h-12h-12v-12h12v-12v-12h-12v12h-12v12h-12v12h-12v12
		v12h12v12h12h12v-12h12v12h12v12h-12v12h-12v-12h-12h-12h-12v12v12h-12h-12v12v12v12v12v12v12h12v-12h12h12v-12h12v-12h-12v-12h-12
		v12v12h-12v-12v-12h12v-12h12h12v-12h-12v-12h12v12h12h12h12v12h-12v12h-12v12h12h12v-12h12v12h-12v12h12h12h12v-12h-12v-12h12v-12
		h-12h-12v-12v-12h12h12h12v-12v-12v-12v-12h-12H448z M460,196h-12h-12v-12h12h12V196z"/>
	<rect x="460" y="232" class="st0" width="12" height="12"/>
	<rect x="460" y="256" class="st0" width="12" height="12"/>
	<rect x="460" y="292" class="st0" width="12" height="12"/>
	<rect x="460" y="376" class="st0" width="12" height="12"/>
	<path class="st0" d="M112,28H28v84h84V28z M100,100H40V40h60V100z"/>
	<rect x="52" y="52" class="st0" width="36" height="36"/>
	<path class="st0" d="M388,28v84h84V28H388z M460,100h-60V40h60V100z"/>
	<rect x="412" y="52" class="st0" width="36" height="36"/>
	<path class="st0" d="M28,472h84v-84H28V472z M40,400h60v60H40V400z"/>
	<rect x="52" y="412" class="st0" width="36" height="36"/>
</g>
</svg>
