<svg width="57" height="61" viewBox="0 0 57 61" fill="none" xmlns="http://www.w3.org/2000/svg">
<path d="M12.24 25.8811C12.24 25.8811 13.3553 26.8226 13.3553 31.197C13.3553 35.5713 10.9798 38.0772 10.9798 38.0772L15.7308 40.9524C15.7308 40.9524 20.2355 34.5719 19.7358 30.5669C19.2361 26.5619 16.9982 22.7669 16.9982 22.7669L12.24 25.8739L12.24 25.8811Z" fill="#82B418"/>
<path d="M21.4449 18.045C21.4449 18.045 25.2761 26.1491 25.2761 30.5235C25.2761 34.8979 20.2572 45.1892 20.2572 45.1892L25.8555 49.8823C25.8555 49.8823 36.212 38.1787 31.1279 21.782C29.9329 17.9291 28.1441 13.6779 28.1441 13.6779L21.4449 18.0522L21.4449 18.045Z" fill="#82B418"/>
<path d="M32.4388 9.4917C32.4388 9.4917 37.5229 17.958 38.1313 22.2961C40.7023 40.5613 30.9903 54.4521 30.9903 54.4521L35.8137 59.1451C35.8137 59.1451 54.0789 35.8031 42.1145 13.2287C40.2243 9.66551 39.1307 5.12457 39.1307 5.12457L32.4316 9.49894L32.4388 9.4917Z" fill="#82B418"/>
<path d="M28.7018 54.6331C28.7018 54.2783 28.8249 53.9306 29.0566 53.6554C29.1435 53.554 37.7691 43.183 37.7691 30.5089C37.7691 17.8349 29.1435 7.46385 29.0566 7.35522C28.7887 7.03655 28.6656 6.62374 28.709 6.21093C28.7597 5.79811 28.9697 5.42151 29.3101 5.17527L35.3502 0.68503C35.9441 0.243248 36.777 0.301187 37.3057 0.815392C37.4215 0.924027 40.1374 3.61817 42.8533 8.62262C45.3446 13.207 48.314 20.7101 48.314 30.3931C48.314 40.0761 45.3446 47.6443 42.8533 52.2866C40.1374 57.349 37.4287 60.1011 37.3129 60.217C36.7842 60.7529 35.9441 60.8109 35.3357 60.3618L29.2956 55.8354C28.9625 55.5891 28.7452 55.2125 28.7018 54.7997C28.7018 54.7418 28.6945 54.6838 28.6945 54.6331L28.7018 54.6331ZM40.7892 30.5089C40.7892 41.7708 34.7708 51.0627 32.3446 54.3435L36.0455 57.1173C37.0087 55.9585 38.6382 53.8003 40.2605 50.7585C42.5636 46.4348 45.3084 39.3953 45.3084 30.3931C45.3084 16.1184 38.5006 6.79756 36.06 3.92235L32.3591 6.67444C34.7853 9.96246 40.8037 19.2544 40.8037 30.5089L40.7892 30.5089Z" fill="#183B44"/>
<path d="M18.1642 45.6164C18.1642 45.276 18.28 44.9356 18.4973 44.6677C18.5552 44.5952 24.197 37.4978 24.197 30.5306C24.197 22.6437 18.6277 16.4805 18.5698 16.4226C18.2801 16.1112 18.1352 15.6839 18.1786 15.2566C18.2221 14.8293 18.4394 14.4454 18.7798 14.1847L24.7764 9.74516C25.4137 9.27441 26.319 9.3758 26.826 9.9914C27.1519 10.3752 34.7274 19.544 34.7274 30.5451C34.7274 43.0744 27.0433 50.8454 26.7174 51.164C26.1887 51.6927 25.3486 51.7507 24.7547 51.3016L18.758 46.8186C18.4321 46.5724 18.2149 46.203 18.1642 45.7975C18.1569 45.7323 18.1497 45.6744 18.1497 45.6092L18.1642 45.6164ZM27.2171 30.5306C27.2171 36.759 23.5525 42.7629 21.7781 45.305L25.4572 48.0571C27.3474 45.7395 31.7291 39.4025 31.7291 30.5451C31.7291 22.7234 27.2967 15.7128 25.392 13.0549L21.865 15.6694C23.6901 18.0883 27.2315 23.6432 27.2315 30.5306L27.2171 30.5306Z" fill="#183B44"/>
<path d="M9.10404 38.1206C9.10404 37.7223 9.26336 37.3385 9.54581 37.056C9.56753 37.0343 12.1458 34.3546 12.1458 30.5452C12.1458 26.7357 9.58928 24.0053 9.56031 23.9836C9.25613 23.665 9.10404 23.2159 9.15474 22.7742C9.20543 22.3324 9.44441 21.934 9.81377 21.6878L14.2823 18.6967C14.8834 18.2984 15.68 18.3781 16.187 18.885C16.3898 19.0878 21.1697 23.9691 21.1697 30.5597C21.1697 37.1502 16.455 41.9663 16.2522 42.1691C15.7452 42.6761 14.9558 42.7557 14.362 42.3647L9.78482 39.3736C9.40822 39.1273 9.15474 38.7218 9.11129 38.2655C9.11129 38.2148 9.10404 38.1641 9.10404 38.1062L9.10404 38.1206ZM15.1586 30.5452C15.1586 33.7463 13.8333 36.2811 12.8194 37.7585L14.8979 39.1201C16.0712 37.6064 18.1569 34.3981 18.1569 30.5597C18.1569 26.7212 16.0422 23.4767 14.8472 21.9485L12.8338 23.2956C13.8333 24.7803 15.1659 27.3441 15.1659 30.5452L15.1586 30.5452Z" fill="#183B44"/>
</svg>
