<svg width="115" height="114" viewBox="0 0 115 114" fill="none" xmlns="http://www.w3.org/2000/svg">
<rect x="0.555542" width="113.889" height="113.889" rx="4" fill="white"/>
<g clip-path="url(#clip0_6034_1180)">
<path d="M80.1633 106.944H71.5561C70.8112 106.077 71.1582 104.955 71.0204 104.026H68.5408C68.4592 105.103 68.7551 106.118 68.0153 106.944H59.4082V104.031H56.3725V106.944H47.2602V100.853H50.2959V103.138C50.6327 103.475 50.8112 103.654 51.0765 103.919C51.7806 103.878 52.5612 103.837 53.3316 103.797V100.853H59.4082V91.7149H62.3776C62.4337 92.8475 62.4847 93.8118 62.5357 94.7608H65.4439C65.4031 95.7455 65.4031 96.7302 65.4031 97.8781H62.5153V100.745H68.0102C68.0102 98.8781 68.3622 96.5771 67.8776 94.7608H65.4388C65.4796 90.9036 65.4796 87.0516 65.4796 83.2047H62.3725V85.5108H50.2347V83.2047H47.1837V85.5567C46.3061 85.6128 45.5102 85.6588 44.8061 85.6996V91.6434C45.6786 91.6996 46.4745 91.7557 47.2551 91.8067V94.7608H41.7347V97.8322H44.7245C44.6225 98.9598 45.1276 100.036 44.1072 100.72H41.0816V97.8577H35.5765V100.781H32.7551C32.5102 100.536 32.3316 100.358 32.0612 100.087C32.0612 98.271 32.0867 96.4751 32.1378 94.6638H38.1582V88.6332H41.1072V85.7404H35.5357V91.7404C34.3163 91.6332 33.1735 91.8475 32.0663 91.5924C32.0663 88.7404 32.0663 86.0363 32.0663 83.3322C32.3061 83.0924 32.5459 82.8526 32.8725 82.5261H34.9796V80.072C33.9235 79.9036 32.8061 80.4547 32.0306 79.1792V77.0975H26.5663V79.5975H29.4439V82.4036C29.1786 82.669 29 82.8475 28.8316 83.0159H26.4388V80.1128H23.4643V82.3067C23.199 82.5771 23.0204 82.7557 22.801 82.9751H20.3725V77.1077H17.3112V83.0312H15.0561C14.8418 82.8169 14.6633 82.6383 14.3061 82.2812V80.1077H11.2398V83.1026C10.1174 82.97 9.01021 83.5006 8.32654 82.3781V80.2302C8.56633 79.9904 8.7449 79.8118 8.96939 79.5822C9.71939 79.5363 10.5153 79.4904 11.3929 79.4394V76.4649H14.2347V74.0414C12.2245 73.6179 10.1582 74.5006 8.26531 73.3985C8.26531 70.7149 6.75001 60.5567 8.51021 58.7149H11.301V63.97C12.2347 65.2812 13.3061 64.669 14.3725 64.7965V61.7608H17.3725V70.8985C16.3623 70.8985 15.3469 70.8985 14.301 70.9139C14.2653 69.919 14.2653 68.9445 14.2653 67.9496H11.3418V70.0516C12.1378 71.47 13.3571 70.6485 14.301 70.9139C14.3367 71.72 14.3367 72.5414 14.3367 73.3016H17.3725V70.8985H20.4082V61.7608H23.4439V67.8526H29.4745C29.4337 68.8424 29.4337 69.8322 29.4337 70.9802C28.4592 70.9802 24.2245 70.4394 23.5306 71.0567V73.4394H31.7959C32.051 73.6945 32.2296 73.873 32.5816 74.2302V76.419H34.9745V70.8526H32.7551C32.4898 70.5873 32.3112 70.4088 32.102 70.1996C32.051 69.4343 32.0051 68.6383 31.9541 67.8577H29.4694C29.5102 66.8424 29.5102 65.8271 29.5102 64.8118H31.9082V61.7659H29.5102V58.72H26.4745V55.623H29.5816C29.3469 54.4751 29.9949 53.271 28.6582 52.6332H23.4388V49.5567C25.4235 49.5261 27.4082 49.5261 29.4082 49.5261V47.0516C27.551 47.0516 25.25 46.6894 23.4388 47.1843V49.5567C19.4133 49.5873 15.3929 49.5873 11.2806 49.5873V47.0924C10.2296 46.8781 8.9796 47.4904 8.21939 46.1894C8.58164 44.3883 7.66837 42.3271 8.83164 40.4292H11.3265V38.1332C11.6837 37.7761 11.8623 37.5975 11.9694 37.4904H14.2653C14.3265 38.5363 14.3776 39.5057 14.4388 40.5516H17.398V43.3883H29.4439V40.8934H26.5612V37.4547H28.7398C30.102 38.1843 29.1174 39.5516 29.7296 40.4394H34.8469C35.0408 40.669 35.2602 40.9241 35.5357 41.2506V43.5771C33.5306 44.1332 31.6735 44.0108 29.5969 44.0108V46.4853C30.6429 46.5414 31.6071 46.5975 32.648 46.6536V55.6332H35.0306V50.4139C35.3571 50.0873 35.5969 49.8475 35.9235 49.521H38.1276V47.3118C38.3929 47.0414 38.5765 46.8628 38.9337 46.5057H41.0867V44.0312H38.898C38.6327 43.7608 38.449 43.5822 38.199 43.3322V41.1587C38.398 40.9598 38.6378 40.72 38.9643 40.3934H44.2194C44.1786 39.5057 44.1429 38.7149 44.102 37.9241H38.8776L38.0663 37.1128V31.9649H32.6429V34.8934H35.4949V37.9955C34.3061 37.7098 33.0459 38.4802 32.1071 37.2098C32.0612 36.4751 32.0153 35.6741 31.9643 34.8883H23.4439V31.8424C26.3316 31.8424 29.2602 31.9751 32.1429 31.7965V25.7251H35.1225V22.7659H47.1225V28.72H44.1276V25.8373H41.6633V28.8169H38.6939V31.8832H47.1684V34.8424C46.3061 34.8832 45.5051 34.919 44.7857 34.9496V37.3526C45.6582 37.4139 46.4592 37.4649 47.3316 37.5261V40.4139H50.3112V38.1485C50.6684 37.7914 50.8469 37.6128 50.9541 37.5057H53.25C53.3061 38.5516 53.3572 39.521 53.4031 40.373H59.4082V37.3883H62.3571V34.8271H56.4286V31.8985C57.4694 31.8475 58.4337 31.8016 59.3878 31.7608V28.7965H62.4235V31.7965H64.7551C65.2245 31.1434 65.4711 30.1315 65.4949 28.7608C66.2704 28.7251 67.0816 28.7251 67.8827 28.7251V25.8118H65.5306C65.5306 26.8424 65.5306 27.822 65.4949 28.7659C64.449 28.8016 63.4337 28.8016 62.4235 28.8016V25.7557H59.3878V22.6996H67.8929V19.6281H65.4133V14.1588H62.4847C62.4337 15.0312 62.3878 15.8322 62.3418 16.623H59.3878V14.22H56.352V16.623H53.3163V13.5618H56.3827V8.021H68.4388V10.2863C68.2092 10.5261 67.9745 10.771 67.6633 11.0975H65.5204V13.5771H71.4745V16.6485H68.5867V19.5669C69.6327 19.623 70.5969 19.6792 71.6378 19.7353V22.6179H74.1122V13.4904H77.1735V8.04651H80.0663C80.1327 8.92406 80.1939 9.71998 80.2551 10.5975H83.1174V14.0975H77.6837V16.5261C78.551 16.5771 79.352 16.623 80.1378 16.669V19.6332H77.6071C77.6123 22.7965 77.602 25.7863 77.6173 28.771H80.1429V31.8271H74.6429V37.0771C74.3163 37.4036 74.0765 37.6434 73.7551 37.97H62.551V40.4241C63.6225 40.5618 64.7296 40.0465 65.5051 41.3118V43.3781H67.949C68.1378 42.3271 67.5612 41.1996 68.7092 40.5057H70.8112C71.9286 41.2965 71.449 42.3577 71.5306 43.4343C70.6225 44.0108 69.6327 44.2047 68.5612 44.0057V49.4751H70.9796C71.1888 48.4343 70.5918 47.3016 71.8674 46.5261H74.0102V41.271C74.3367 40.9445 74.5765 40.7047 74.9031 40.3781H77.1123C77.1123 38.5669 77.1327 36.771 77.1837 34.9547H80.1684V37.2965H83.2347V34.8067H86.301V31.9547H89.3571V37.3526H95.3725V31.8883H98.4337V34.8832C99.5561 34.7557 100.658 35.2965 101.439 34.021V31.9292H106.918V47.1026H104.383V49.5261C103.332 49.5771 102.367 49.6281 101.413 49.6741V58.7251H98.3775V61.771H95.3418V67.8628H86.1531V58.8118H83.1939C83.1939 60.322 84.051 66.623 82.9592 67.8628H80.1123C80.0714 65.8577 80.0714 63.8526 80.0714 61.771C78.0408 61.771 76.0153 61.7506 73.9847 61.7149V58.7863H71.6531V67.8016H74.1378V64.8985H77.5663C77.6173 65.9445 77.6582 66.9088 77.7041 67.8679H80.1123C80.1531 68.6281 80.1531 69.3883 80.1531 70.1536C80.3878 70.3883 80.6275 70.6281 80.9592 70.9547H83.2449V73.373H86.1582C86.2143 72.4955 86.2653 71.6996 86.3112 71.0057H89.2806V79.4394H92.3418V73.3985H98.301V70.97C97.2602 70.9241 96.2959 70.8781 95.3418 70.8322V67.8679H100.617C101.837 66.9241 101.342 65.8679 101.337 64.7863H98.3775V61.7761H101.413V58.7302H106.847V61.8679H104.495V70.9241H106.929V77.0261H104.418V82.3373C103.495 83.521 102.434 83.0159 101.342 83.0108V77.123H95.4184V82.5261C96.4592 82.5771 97.4235 82.623 98.2908 82.6639V85.6383H95.3418V94.7659H83.2959V97.8118C84.602 97.8118 91.3265 96.9904 92.3061 98.0873V100.858H89.3316C89.2755 101.985 89.2296 102.95 89.1888 103.817H86.2908C86.2398 102.771 86.1888 101.807 86.1429 100.944H83.2551C83.199 101.995 83.148 102.96 83.0969 103.904H80.1123C80.0663 102.909 80.0663 101.919 80.0663 100.842H77.0918V97.771H74.0255V94.8475H71.5459C71.551 97.924 71.5357 100.919 71.5561 103.904H80.1071C80.1531 104.919 80.1531 105.934 80.1531 106.95L80.1633 106.944ZM92.25 55.7557H89.3827V64.7506H92.25C92.25 61.6843 92.25 58.6792 92.3878 55.6026H95.2449V52.6843H92.3878C92.3878 53.7149 92.3878 54.6945 92.25 55.7557ZM50.301 49.5822C49.3112 49.7659 48.1276 49.0822 47.2653 50.3934V55.5873H44.2194V47.1485H41.6633V49.6332H38.602V55.7506H35.5408V58.7353H32.6888V61.8067H35.6735V67.919H41.648V70.1128C40.9592 71.4955 39.6071 70.5465 38.7296 71.0618V73.4088H43.9286C44.2653 73.7353 44.5051 73.9751 44.8265 74.2914V79.4853H47.2959V76.4496H50.3572V73.3781H53.2755C53.3316 72.4904 53.3776 71.6945 53.4184 70.9955H56.2959C56.3674 71.8781 56.4286 72.669 56.5 73.5465H59.4541V79.419H68.0816V77.1843C68.3469 76.9138 68.5255 76.7353 68.7959 76.47H70.9541V73.9088H62.5663V67.9087C63.6072 67.7098 64.7398 68.2965 65.5051 67.0159V64.7812H67.9541V58.8373H65.4184V61.7047C64.3674 61.7557 63.4031 61.8067 62.3571 61.8577V64.8322H59.3776V67.7914H56.3163V64.7404H53.3367C53.3367 62.7608 53.3214 60.7914 53.2806 58.8118H50.2857V67.7557H47.2245V64.7608H44.3061V58.7812C45.3469 58.7353 46.3112 58.6894 47.2653 58.6434V55.6792H56.3776V61.6434H59.5V58.72H62.449C62.449 56.6383 62.449 54.6383 62.5153 52.5669H65.3827V50.2863C64.5255 49.1179 63.4898 49.8067 62.5153 49.5261C62.5153 50.6792 62.5153 51.6587 62.449 52.6383H59.4796C59.4235 53.771 59.3725 54.7353 59.3214 55.6843H56.3776V52.6383C54.352 52.6383 52.3265 52.6179 50.301 52.5771V49.5057H56.3265V47.0312H53.301V44.123H47.3418V46.4904C48.3827 46.5363 49.3469 46.5822 50.301 46.6281V49.5975V49.5822ZM83.2041 52.5465H89.1531V37.9955H83.2704C83.2143 39.0465 83.1582 40.0108 83.102 41.0516H80.2245V43.5312H86.1786V49.5465H84.0204C83.6837 49.8781 83.4439 50.1128 83.2041 50.3424V52.5465H80.0918C80.0918 51.3067 80.8061 44.9292 80.0051 44.0924H77.6327C77.6327 45.9598 77.6071 47.8169 77.5561 49.6792H74.648V52.572H76.8112C77.1378 52.8985 77.3725 53.1383 77.6939 53.4598V58.6077H80.2398V55.7455C81.2857 55.6945 82.25 55.6434 83.199 55.5975V52.5567L83.2041 52.5465ZM83.2857 83.1281V91.72C86.352 91.7098 89.3367 91.7353 92.2245 91.7047V83.1281H83.2857ZM77.0816 77.0822H71.5561V78.9802C70.8265 80.7455 69.4133 79.5873 68.5867 80.2098V88.5618H74.0204V85.5618H71.0357C71.1684 84.4394 70.6276 83.3373 71.898 82.5567H74.1225V80.5261C74.9694 78.9088 76.2041 79.9343 77.0816 79.3424V77.0822ZM101.347 46.5363C101.388 45.5822 101.434 44.6179 101.485 43.4802H103.908V40.9343H101.403V38.0108H98.3878C98.3878 40.8424 98.2704 43.7098 98.4235 46.5414H101.347V46.5363ZM62.3725 46.5363C62.4235 44.6843 62.4286 42.8832 62.3878 41.0414H59.4694C59.4133 42.0924 59.3623 43.0567 59.3061 44.0924H56.3418C56.3929 44.9802 56.4337 45.7659 56.4745 46.5414H62.3725V46.5363ZM83.1174 77.0006V74.0873H80.25V79.4138H86.1582V77.0057H83.1174V77.0006ZM74.5102 67.9036V70.8424C73.4643 70.8934 72.5 70.9445 71.648 70.9904V73.4445C73.4541 73.4445 75.2398 73.4241 77.0459 73.373V67.9087H74.5102V67.9036ZM11.4082 40.9955V46.4036H14.2755V40.9955H11.4082ZM53.4235 73.9955V79.3985H56.2857V73.9955H53.4235ZM98.3418 47.1332H92.2857C92.3316 48.0159 92.3725 48.8067 92.4031 49.4955H98.3367V47.1332H98.3418ZM74.0051 31.7761V25.7098C73.1276 25.7506 72.3367 25.7863 71.6429 25.8169V31.7761H74.0051ZM38.7347 77.0414V82.4496H41.1072V77.0414H38.7347ZM71.0102 31.9036H68.6531V34.7761H71.0102V31.9036ZM53.25 82.5363V80.1741H50.3878V82.5363H53.25ZM56.3725 82.4496H59.3214V80.1741H56.3725V82.4496ZM92.398 41.0006V43.3679H95.2704V41.0006H92.398ZM77.6071 88.669C77.7092 89.6843 77.5051 90.6996 77.7347 91.6281H80.0306V88.669H77.6071ZM20.5204 73.9904V76.3577H23.3878V73.9904H20.5204ZM35.6633 28.6843H38.0204V25.8118H35.6633V28.6843ZM68.5663 25.6383H70.9235V22.7659H68.5663V25.6383ZM68.6071 67.9036V70.9292C69.4898 70.8883 70.2755 70.8475 70.9643 70.8169V67.9036H68.6071ZM59.4949 11.0465V13.4139H62.3623V11.0465H59.4949ZM77.7194 80.0822V82.5975C78.602 82.5567 79.3878 82.521 80.0765 82.4853V80.0771H77.7194V80.0822ZM77.0408 85.5822V83.0669C76.1633 83.1077 75.3725 83.1434 74.6786 83.1741V85.5822H77.0408ZM103.821 37.4036V34.9547H101.403C101.449 35.8424 101.485 36.6281 101.526 37.4036H103.827H103.821ZM101.469 73.3577H103.832V70.9853H101.469V73.3577Z" fill="#003641"/>
<path d="M8.79082 106.944C8.20409 106.261 8.28062 105.439 8.28062 104.623C8.28572 98.5465 8.28062 92.4649 8.28062 86.3884C8.52042 86.1486 8.75511 85.9088 8.9847 85.6792H29.5408V106.944H8.79082ZM11.9898 103.807H25.8367C26.1071 103.536 26.2857 103.358 26.5051 103.133C26.5051 101.138 27.8469 89.8629 25.7398 88.7098H12.0357C11.8112 88.9343 11.6327 89.1129 11.3878 89.3578V103.194C11.5459 103.353 11.7245 103.531 11.9898 103.802V103.807Z" fill="#003641"/>
<path d="M32.5816 106.945C31.8724 106.108 32.102 105.103 32.0765 104.021H38.6531C38.6071 104.985 38.9082 106.021 38.1531 106.945H32.5867H32.5816Z" fill="#003641"/>
<path d="M41.6939 106.944C40.9847 106.113 41.2245 105.108 41.1786 104.026H44.7143C44.699 104.996 44.9694 106.026 44.2245 106.944H41.6939Z" fill="#003641"/>
<path d="M98.3878 106.944V104.041H101.418C101.372 104.985 101.673 106.026 100.918 106.944H98.3878Z" fill="#003641"/>
<path d="M8.36734 8.00061H29.4592V28.521C27.4694 28.8782 15.3622 28.9802 8.36734 28.6843V8.00061ZM11.4031 11.0465V25.7251C14.1428 25.7251 24.4847 27.3016 26.4184 25.5669V11.0465H11.4031Z" fill="#003641"/>
<path d="M106.908 28.7301H86.3316V8.21483C88.3061 7.84748 99.3929 7.74034 106.908 8.04136V28.7301ZM89.3214 25.6383H103.959C103.959 23.2812 105.388 12.5618 103.786 11.0924H89.3214V25.6383Z" fill="#003641"/>
<path d="M95.3521 100.853V94.7609H98.301C98.5 92.8068 98.3061 90.817 98.4184 88.7609H104.413V91.6282H101.52C101.311 93.6741 101.505 95.6639 101.393 97.72H98.4847C98.4286 98.7558 98.3827 99.7252 98.3214 100.858H95.3521V100.853Z" fill="#003641"/>
<path d="M44.6786 8.04651V10.2965C44.449 10.5261 44.2704 10.7098 44 10.9751H35.6327V13.2761C35.2755 13.6332 35.097 13.8118 34.9184 13.9955C34.1837 13.9955 33.449 13.9955 32.7755 13.9955C32.5357 13.7557 32.3572 13.5771 32.1276 13.3475V8.04651H44.6786Z" fill="#003641"/>
<path d="M20.4337 61.7659H17.398V55.6741H14.3622V52.6282H23.4745V55.5874C22.5255 55.6333 21.5612 55.6843 20.4388 55.7404V61.7659H20.4337Z" fill="#003641"/>
<path d="M53.2959 8.04138V10.924H50.3878C50.3367 11.9597 50.2959 12.924 50.2449 13.9751H47.352C47.301 14.8424 47.2551 15.6434 47.2041 16.5159H44.3521V13.6179H47.1939V8.04138H53.301H53.2959Z" fill="#003641"/>
<path d="M53.3367 100.853H50.301V97.8986C49.3572 97.8476 48.3929 97.8017 47.2653 97.7405V94.7609H53.3418V100.853H53.3367Z" fill="#003641"/>
<path d="M80.1633 28.7711V19.6333H83.1939C83.2143 22.618 83.1939 25.6078 83.2041 28.7711H80.1633Z" fill="#003641"/>
<path d="M41.6174 19.5925H38.2398V14.215C38.4694 13.9854 38.648 13.8068 38.8674 13.5874H40.9796C41.1939 13.8017 41.3674 13.9752 41.6225 14.2303V19.5925H41.6174Z" fill="#003641"/>
<path d="M20.352 34.7966H14.4133V31.9242H20.352V34.7966Z" fill="#003641"/>
<path d="M53.2704 16.6689V22.623H50.4082V16.6689H53.2704Z" fill="#003641"/>
<path d="M32.0459 19.5362C32.199 18.4444 31.6531 17.3373 32.8061 16.6332H35.5357V19.5464C34.4337 19.6842 33.2551 19.6842 32.0459 19.5362Z" fill="#003641"/>
<path d="M73.8163 11.0056C73.1429 11.0056 72.4796 11.0056 71.8112 11.0056C71.5765 10.7709 71.3418 10.5312 71.1071 10.2965C71.1071 9.56687 71.1071 8.83728 71.1071 8.03625H74.5153C74.5204 8.95972 75.0255 10.0005 73.8163 11.0056Z" fill="#003641"/>
<path d="M92.3163 100.853H95.3521V103.766H92.3163V100.853Z" fill="#003641"/>
<path d="M14.3572 55.6742V58.7201H11.3214V55.6742H14.3572Z" fill="#003641"/>
<path d="M104 97.7251V94.8424H106.867V97.7251H104Z" fill="#003641"/>
<path d="M56.3724 16.5873H59.4081V19.5005H56.3724V16.5873Z" fill="#003641"/>
<path d="M50.301 28.669V25.8578H53.25V28.6639C52.3265 28.8476 51.3163 28.817 50.301 28.6639V28.669Z" fill="#003641"/>
<path d="M59.4082 25.7251V28.771H56.5051V25.7251H59.4082Z" fill="#003641"/>
<path d="M20.4337 34.8629H23.4694V37.7762H20.4337V34.8629Z" fill="#003641"/>
<path d="M50.3418 34.7812V31.9037H53.2092V34.7812H50.3418Z" fill="#003641"/>
<path d="M8.32654 34.1435V31.9037H11.1888V34.771H8.94899C8.71429 34.5312 8.53572 34.3578 8.32654 34.1435Z" fill="#003641"/>
<path d="M104.01 103.189V100.929H106.872V103.929C105.913 103.715 104.791 104.393 104.01 103.194V103.189Z" fill="#003641"/>
<path d="M41.6123 64.7659H38.2296V58.8475H41.6123V64.7659Z" fill="#003641"/>
<path d="M59.3367 91.6435H56.4286V88.7761H59.3367V91.6435Z" fill="#003641"/>
<path d="M86.3214 85.6689H89.1939V88.5414H86.3214V85.6689Z" fill="#003641"/>
<path d="M26.5051 58.72V61.7659H23.4694V58.72H26.5051Z" fill="#003641"/>
<path d="M29.5459 61.7659V64.8118H26.5102V61.7659H29.5459Z" fill="#003641"/>
<path d="M14.4439 91.7609H23.3827V100.679C22.5153 101.628 15.5765 100.853 14.4439 100.853V91.7609Z" fill="#003641"/>
<path d="M14.3979 22.5976V13.6282H23.4592C23.4745 16.5261 23.4592 19.521 23.4694 22.5976H14.3979Z" fill="#003641"/>
<path d="M101.342 22.6383H92.4031V13.5567C95.2959 13.5261 98.2755 13.5567 101.342 13.5414V22.6383Z" fill="#003641"/>
</g>
<defs>
<clipPath id="clip0_6034_1180">
<rect width="100" height="100" fill="white" transform="translate(7.5 6.94446)"/>
</clipPath>
</defs>
</svg>
