<?xml version="1.0" encoding="utf-8"?>
<!-- Generator: Adobe Illustrator 28.3.0, SVG Export Plug-In . SVG Version: 6.00 Build 0)  -->
<svg version="1.1" id="Layer_1" xmlns="http://www.w3.org/2000/svg" xmlns:xlink="http://www.w3.org/1999/xlink" x="0px" y="0px"
	 viewBox="0 0 142.2 32.8" style="enable-background:new 0 0 142.2 32.8;" xml:space="preserve">
<style type="text/css">
	
		.st0{clip-path:url(#SVGID_00000174599122334426325530000013691659195101177020_);fill-rule:evenodd;clip-rule:evenodd;fill:#FFFFFF;}
	.st1{fill:#79B72C;}
	.st2{fill:#00A194;}
	.st3{fill:#C7D309;}
</style>
<g>
	<defs>
		<polygon id="SVGID_1_" points="22.8,32.8 142.2,32.8 142.2,0 41,0 		"/>
	</defs>
	<clipPath id="SVGID_00000034768417568149445140000007447381392372274103_">
		<use xlink:href="#SVGID_1_"  style="overflow:visible;"/>
	</clipPath>
	
		<path style="clip-path:url(#SVGID_00000034768417568149445140000007447381392372274103_);fill-rule:evenodd;clip-rule:evenodd;fill:#FFFFFF;" d="
		M90.8,5.8L90.8,5.8c-6.4,0.1-10.3,4.9-10.3,10.9c0,5.8,3.6,10.6,10,10.6h0.2c6.3-0.1,10.2-4.3,10.2-11
		C100.9,10.8,97.5,5.8,90.8,5.8z M90.7,22.9L90.7,22.9c-2.8,0-4.4-2.6-4.4-6.3s1.6-6.3,4.3-6.3l0,0c2.7,0,4.3,2.7,4.3,6.3
		C95,20.3,93.4,22.9,90.7,22.9z M113.1,5.8L113.1,5.8c-6.4,0.1-10.3,4.9-10.3,10.9c0,5.8,3.6,10.6,10,10.6h0.2
		c6.3-0.1,10.2-4.3,10.2-11C123.2,10.8,119.8,5.8,113.1,5.8z M113,22.9L113,22.9c-2.7,0-4.4-2.6-4.3-6.3s1.6-6.3,4.3-6.3
		s4.3,2.7,4.3,6.3C117.3,20.3,115.7,22.9,113,22.9z M137.2,15.8L137.2,15.8c2.4-1,3.4-2.7,3.4-4.4c0-1.9-1.1-3.6-2.8-4.3
		c-1.6-0.7-3.3-1.1-5.1-1c-0.4,0-0.8,0-1.3,0c-2.2,0-4.4,0.1-6.6,0.5V27c1.8,0.3,3.7,0.4,5.5,0.4c0.9,0,1.6,0,2.4-0.1
		c3.1-0.2,5-0.8,6.2-1.8c1.5-1.1,2.4-2.8,2.4-4.6C141.3,18.4,139.6,16.3,137.2,15.8L137.2,15.8z M130.4,10.2
		c0.6-0.1,1.2-0.1,1.8-0.1h0.5c1.6,0.1,2.3,0.9,2.3,2s-0.8,1.8-2.3,2.1c-0.4,0.1-0.8,0.1-1.2,0.1h-1.1V10.2z M132.7,23.2
		c-0.2,0-0.5,0-0.7,0c-0.5,0-1.1,0-1.6-0.1v-5h1.3c0.3,0,0.7,0,1,0c1.6,0.2,2.7,0.9,2.7,2.4S134.2,23,132.7,23.2L132.7,23.2z
		 M54.9,6.2V27h5.6V9.6C60.5,7,59.1,6.2,54.9,6.2z M46.8,14.4C44.1,13.4,43,13,43,12s0.9-1.5,2.6-1.5c1.6,0,3.1,0.4,4.5,1
		c0.9-2.2,1.3-5.6-4.4-5.6c-5.2,0-8.4,2.8-8.4,6.5c0,3.1,2.3,5,5.9,6.3c2.3,0.8,3.3,1.4,3.3,2.4s-0.9,1.7-2.8,1.7
		c-1.9,0-3.7-0.5-5.4-1.3l-1.1,4.6c1.9,0.9,4,1.3,6.1,1.3c6.1,0,8.9-3.1,8.9-6.6C52.2,17.8,50.5,15.8,46.8,14.4z M75.1,22.7
		c-3.8,0-6.1-2.4-6.1-6.1c0-4.2,2.8-6.1,6-6.1c1.3,0,2.6,0.3,3.9,0.7c1-2.2,0.7-5.3-4.1-5.3c-6.2,0-11.6,3.7-11.6,11.1
		c0,5.5,3.4,10.4,11.2,10.4c1.8,0.1,3.6-0.2,5.2-0.9l-0.8-4.4C77.7,22.5,76.4,22.7,75.1,22.7z"/>
</g>
<g>
	<path class="st1" d="M2.6,0.8C2.3,0.9,2.1,1,1.8,1.1c-0.6,0.3-1,1-1,1.7c0,0.3,0.1,0.6,0.2,0.9L10.5,20l3.1-5.3l0,0l5-8.6l-3-5.3
		L2.6,0.8z"/>
	<path class="st2" d="M15.5,0.8l8,13.9h6.1L36,3.6c0.1-0.3,0.2-0.5,0.2-0.8c0-1-0.8-1.9-1.8-1.9L15.5,0.8L15.5,0.8z"/>
	<path class="st3" d="M29.2,14.7H13.6L10.5,20L17,31.2c0.2,0.2,0.4,0.4,0.6,0.6c0.9,0.5,2,0.2,2.6-0.6l9.5-16.4h-0.5V14.7z"/>
</g>
</svg>
