<?xml version="1.0" encoding="UTF-8"?>
<svg id="Camada_2" data-name="Camada 2" xmlns="http://www.w3.org/2000/svg" version="1.1" viewBox="0 0 56.3 93.7">
  <defs>
    <style>
      .fill-verdee {
        fill: #00353e;
      }

      .fill-verdee, .fill-verdem, .cls-3, .cls-4 {
        stroke-width: 0px;
      }

      .fill-verdem {
        fill: #7ab929;
      }

      .cls-3 {
        fill: #00a295;
      }

      .cls-4 {
        fill: #fff;
      }
    </style>
  </defs>
  <g>
    <g>
      <path class="cls-3" d="M6.9,89.1h42.4c1.2,0,2.3-1,2.3-2.2V6.9c0-1.2-1-2.2-2.3-2.2H6.9c-1.2,0-2.3,1-2.3,2.2v79.9c0,1.2,1,2.2,2.3,2.2ZM25.8,7h11.7c1.3,0,2.3,1,2.3,2.3s-1,2.3-2.3,2.3h-11.7c-1.3,0-2.3-1-2.3-2.3s1-2.3,2.3-2.3ZM28.1,77.4c2.6,0,4.7,2.1,4.7,4.7s-2.1,4.7-4.7,4.7-4.7-2.1-4.7-4.7,2.1-4.7,4.7-4.7ZM17.1,7.7c.1,0,.2-.2.4-.3.1,0,.3-.2.4-.2.1,0,.3,0,.4-.1.8-.2,1.6,0,2.1.6.1.1.2.2.3.4,0,.1.2.3.2.4,0,.1.1.3.1.4,0,.1,0,.3,0,.5s0,.3,0,.5c0,.1,0,.3-.1.4,0,.1-.1.3-.2.4,0,.1-.2.2-.3.4-.4.4-1,.7-1.6.7s-.3,0-.5,0-.3,0-.4-.1c-.1,0-.3-.1-.4-.2-.1,0-.2-.2-.4-.3-.4-.4-.7-1-.7-1.6s.2-1.2.7-1.7h0Z"/>
      <path class="cls-4" d="M17.5,11.3c.1,0,.3.2.4.2.1,0,.2,0,.4.1h0c-.4-.5-.7-1.1-.7-1.7s.2-1.2.7-1.6c.1-.1.2-.2.4-.3.1,0,.3-.2.4-.2.1,0,.3,0,.4-.1.3,0,.7,0,1,0-.5-.5-1.4-.8-2.1-.6-.1,0-.3,0-.4.1-.1,0-.3.1-.4.2-.1,0-.2.2-.4.3-.4.4-.7,1-.7,1.6s.2,1.2.7,1.6c.1.1.2.2.4.3h0Z"/>
    </g>
    <g>
      <path class="fill-verdee" d="M49.4,93.7H6.9c-3.8,0-6.9-3.1-6.9-6.9V6.9C0,3.1,3.1,0,6.9,0h42.4c3.8,0,6.9,3.1,6.9,6.9v79.9c0,3.8-3.1,6.9-6.9,6.9ZM6.9,4.7c-1.2,0-2.2,1-2.2,2.2v79.9c0,1.2,1,2.2,2.2,2.2h42.4c1.2,0,2.2-1,2.2-2.2V6.9c0-1.2-1-2.2-2.2-2.2H6.9Z"/>
      <path class="fill-verdee" d="M37.5,11.7h-11.7c-1.3,0-2.3-1-2.3-2.3s1-2.3,2.3-2.3h11.7c1.3,0,2.3,1,2.3,2.3s-1,2.3-2.3,2.3Z"/>
      <path class="fill-verdee" d="M18.8,11.7c-.2,0-.3,0-.5,0s-.3,0-.4-.1c-.1,0-.3-.1-.4-.2-.1,0-.2-.2-.4-.3-.4-.4-.7-1-.7-1.6s.2-1.2.7-1.7c.1,0,.2-.2.4-.3.1,0,.3-.2.4-.2.1,0,.3,0,.4-.1.8-.2,1.6,0,2.1.6.1.1.2.2.3.4,0,.1.2.3.2.4,0,.1.1.3.1.4,0,.1,0,.3,0,.5s0,.3,0,.5c0,.1,0,.3-.1.4,0,.1-.1.3-.2.4,0,.1-.2.2-.3.4-.4.4-1,.7-1.6.7h0Z"/>
      <path class="fill-verdee" d="M28.1,86.7c-2.6,0-4.7-2.1-4.7-4.7s2.1-4.7,4.7-4.7,4.7,2.1,4.7,4.7-2.1,4.7-4.7,4.7Z"/>
    </g>
  </g>
  <g>
    <g>
      <path class="fill-verdem" d="M25.6,31.8h5.1c1.1,0,2,.9,2,2v5.1c0,1.1-.9,2-2,2h-5.1c-1.1,0-2-.9-2-2v-5.1c0-1.1.9-2,2-2Z"/>
      <path class="fill-verdee" d="M30.7,33.1c.4,0,.7.3.7.7v5.1c0,.4-.3.7-.7.7h-5.1c-.4,0-.7-.3-.7-.7v-5.1c0-.4.3-.7.7-.7h5.1M30.7,30.5h-5.1c-1.8,0-3.3,1.5-3.3,3.3v5.1c0,1.8,1.5,3.3,3.3,3.3h5.1c1.8,0,3.3-1.5,3.3-3.3v-5.1c0-1.8-1.5-3.3-3.3-3.3h0Z"/>
    </g>
    <g>
      <path class="fill-verdee" d="M39.8,31.8h5.1c1.1,0,2,.9,2,2v5.1c0,1.1-.9,2-2,2h-5.1c-1.1,0-2-.9-2-2v-5.1c0-1.1.9-2,2-2Z"/>
      <path class="fill-verdee" d="M44.9,33.1c.4,0,.7.3.7.7v5.1c0,.4-.3.7-.7.7h-5.1c-.4,0-.7-.3-.7-.7v-5.1c0-.4.3-.7.7-.7h5.1M44.9,30.5h-5.1c-1.8,0-3.3,1.5-3.3,3.3v5.1c0,1.8,1.5,3.3,3.3,3.3h5.1c1.8,0,3.3-1.5,3.3-3.3v-5.1c0-1.8-1.5-3.3-3.3-3.3h0Z"/>
    </g>
    <g>
      <path class="fill-verdem" d="M11.4,31.8h5.1c1.1,0,2,.9,2,2v5.1c0,1.1-.9,2-2,2h-5.1c-1.1,0-2-.9-2-2v-5.1c0-1.1.9-2,2-2Z"/>
      <path class="fill-verdee" d="M16.5,33.1c.4,0,.7.3.7.7v5.1c0,.4-.3.7-.7.7h-5.1c-.4,0-.7-.3-.7-.7v-5.1c0-.4.3-.7.7-.7h5.1M16.5,30.5h-5.1c-1.8,0-3.3,1.5-3.3,3.3v5.1c0,1.8,1.5,3.3,3.3,3.3h5.1c1.8,0,3.3-1.5,3.3-3.3v-5.1c0-1.8-1.5-3.3-3.3-3.3h0Z"/>
    </g>
    <g>
      <path class="fill-verdem" d="M25.6,17.7h5.1c1.1,0,2,.9,2,2v5.1c0,1.1-.9,2-2,2h-5.1c-1.1,0-2-.9-2-2v-5.1c0-1.1.9-2,2-2Z"/>
      <path class="fill-verdee" d="M30.7,19c.4,0,.7.3.7.7v5.1c0,.4-.3.7-.7.7h-5.1c-.4,0-.7-.3-.7-.7v-5.1c0-.4.3-.7.7-.7h5.1M30.7,16.4h-5.1c-1.8,0-3.3,1.5-3.3,3.3v5.1c0,1.8,1.5,3.3,3.3,3.3h5.1c1.8,0,3.3-1.5,3.3-3.3v-5.1c0-1.8-1.5-3.3-3.3-3.3h0Z"/>
    </g>
    <g>
      <rect class="fill-verdem" x="37.9" y="17.7" width="9" height="9" rx="2" ry="2"/>
      <path class="fill-verdee" d="M44.9,19c.4,0,.7.3.7.7v5.1c0,.4-.3.7-.7.7h-5.1c-.4,0-.7-.3-.7-.7v-5.1c0-.4.3-.7.7-.7h5.1M44.9,16.4h-5.1c-1.8,0-3.3,1.5-3.3,3.3v5.1c0,1.8,1.5,3.3,3.3,3.3h5.1c1.8,0,3.3-1.5,3.3-3.3v-5.1c0-1.8-1.5-3.3-3.3-3.3h0Z"/>
    </g>
    <g>
      <rect class="fill-verdem" x="9.4" y="17.7" width="9" height="9" rx="2" ry="2"/>
      <path class="fill-verdee" d="M16.5,19c.4,0,.7.3.7.7v5.1c0,.4-.3.7-.7.7h-5.1c-.4,0-.7-.3-.7-.7v-5.1c0-.4.3-.7.7-.7h5.1M16.5,16.4h-5.1c-1.8,0-3.3,1.5-3.3,3.3v5.1c0,1.8,1.5,3.3,3.3,3.3h5.1c1.8,0,3.3-1.5,3.3-3.3v-5.1c0-1.8-1.5-3.3-3.3-3.3h0Z"/>
    </g>
    <g>
      <rect class="fill-verdem" x="23.6" y="45.9" width="9" height="9" rx="2" ry="2"/>
      <path class="fill-verdee" d="M30.7,47.2c.4,0,.7.3.7.7v5.1c0,.4-.3.7-.7.7h-5.1c-.4,0-.7-.3-.7-.7v-5.1c0-.4.3-.7.7-.7h5.1M30.7,44.6h-5.1c-1.8,0-3.3,1.5-3.3,3.3v5.1c0,1.8,1.5,3.3,3.3,3.3h5.1c1.8,0,3.3-1.5,3.3-3.3v-5.1c0-1.8-1.5-3.3-3.3-3.3h0Z"/>
    </g>
    <g>
      <rect class="fill-verdem" x="37.9" y="45.9" width="9" height="9" rx="2" ry="2"/>
      <path class="fill-verdee" d="M44.9,47.2c.4,0,.7.3.7.7v5.1c0,.4-.3.7-.7.7h-5.1c-.4,0-.7-.3-.7-.7v-5.1c0-.4.3-.7.7-.7h5.1M44.9,44.6h-5.1c-1.8,0-3.3,1.5-3.3,3.3v5.1c0,1.8,1.5,3.3,3.3,3.3h5.1c1.8,0,3.3-1.5,3.3-3.3v-5.1c0-1.8-1.5-3.3-3.3-3.3h0Z"/>
    </g>
    <g>
      <rect class="fill-verdem" x="9.4" y="45.9" width="9" height="9" rx="2" ry="2"/>
      <path class="fill-verdee" d="M16.5,47.2c.4,0,.7.3.7.7v5.1c0,.4-.3.7-.7.7h-5.1c-.4,0-.7-.3-.7-.7v-5.1c0-.4.3-.7.7-.7h5.1M16.5,44.6h-5.1c-1.8,0-3.3,1.5-3.3,3.3v5.1c0,1.8,1.5,3.3,3.3,3.3h5.1c1.8,0,3.3-1.5,3.3-3.3v-5.1c0-1.8-1.5-3.3-3.3-3.3h0Z"/>
    </g>
    <g>
      <path class="fill-verdem" d="M25.6,60h5.1c1.1,0,2,.9,2,2v5.1c0,1.1-.9,2-2,2h-5.1c-1.1,0-2-.9-2-2v-5.1c0-1.1.9-2,2-2Z"/>
      <path class="fill-verdee" d="M30.7,61.3c.4,0,.7.3.7.7v5.1c0,.4-.3.7-.7.7h-5.1c-.4,0-.7-.3-.7-.7v-5.1c0-.4.3-.7.7-.7h5.1M30.7,58.7h-5.1c-1.8,0-3.3,1.5-3.3,3.3v5.1c0,1.8,1.5,3.3,3.3,3.3h5.1c1.8,0,3.3-1.5,3.3-3.3v-5.1c0-1.8-1.5-3.3-3.3-3.3h0Z"/>
    </g>
    <g>
      <path class="fill-verdem" d="M39.8,60h5.1c1.1,0,2,.9,2,2v5.1c0,1.1-.9,2-2,2h-5.1c-1.1,0-2-.9-2-2v-5.1c0-1.1.9-2,2-2Z"/>
      <path class="fill-verdee" d="M44.9,61.3c.4,0,.7.3.7.7v5.1c0,.4-.3.7-.7.7h-5.1c-.4,0-.7-.3-.7-.7v-5.1c0-.4.3-.7.7-.7h5.1M44.9,58.7h-5.1c-1.8,0-3.3,1.5-3.3,3.3v5.1c0,1.8,1.5,3.3,3.3,3.3h5.1c1.8,0,3.3-1.5,3.3-3.3v-5.1c0-1.8-1.5-3.3-3.3-3.3h0Z"/>
    </g>
    <g>
      <path class="fill-verdem" d="M11.4,60h5.1c1.1,0,2,.9,2,2v5.1c0,1.1-.9,2-2,2h-5.1c-1.1,0-2-.9-2-2v-5.1c0-1.1.9-2,2-2Z"/>
      <path class="fill-verdee" d="M16.5,61.3c.4,0,.7.3.7.7v5.1c0,.4-.3.7-.7.7h-5.1c-.4,0-.7-.3-.7-.7v-5.1c0-.4.3-.7.7-.7h5.1M16.5,58.7h-5.1c-1.8,0-3.3,1.5-3.3,3.3v5.1c0,1.8,1.5,3.3,3.3,3.3h5.1c1.8,0,3.3-1.5,3.3-3.3v-5.1c0-1.8-1.5-3.3-3.3-3.3h0Z"/>
    </g>
  </g>
  <path class="cls-4" d="M6.8,7.5c0-.7.6-1.2,1.2-1.2h43.5c-.3-.9-1.1-1.6-2.2-1.6H6.9c-1.2,0-2.2,1-2.2,2.2v79.9c0,1.2,1,2.2,2.2,2.2h.6c-.4-.4-.7-1-.7-1.7V7.5h0Z"/>
</svg>