<?xml version="1.0" encoding="UTF-8"?>
<svg id="Camada_2" data-name="Camada 2" xmlns="http://www.w3.org/2000/svg" version="1.1" viewBox="0 0 99.2 99.2">
  <defs>
    <style>
      .cls-1 {
        fill: #00353e;
      }

      .cls-1, .cls-2, .cls-3 {
        stroke-width: 0px;
      }

      .cls-2 {
        fill: #00a295;
      }

      .cls-3 {
        fill: #fff;
      }
    </style>
  </defs>
  <g>
    <path class="cls-2" d="M59.3,5.4L5.4,59.3c-.6.6-.6,1.6,0,2.2l32.3,32.3c.6.6,1.6.6,2.2,0l54-54c.6-.6.6-1.6,0-2.2L61.5,5.4c-.6-.6-1.6-.6-2.2,0ZM35.9,57.8c1,1,1,2.5,0,3.5l-5.7,5.7c-1,1-2.5,1-3.5,0l-4.4-4.4c-1-1-1-2.5,0-3.5l5.7-5.7c1-1,2.5-1,3.5,0l4.4,4.4Z"/>
    <path class="cls-3" d="M60.4,4.9c-.4,0-.8.2-1.1.5L5.4,59.3c-.3.3-.5.7-.5,1.1s.2.8.5,1.1l15.5,15.5,3.2,3.2,13.6,13.6c.6.6,1.6.6,2.2,0l.9-.9-14.7-14.7-1.2-1.2-16.4-16.3c-.4-.3-.4-.9,0-1.3L62,5.9l-.5-.5c-.3-.3-.7-.5-1.1-.5Z"/>
  </g>
  <g>
    <path class="cls-1" d="M97.3,34.2l-18.6-18.6-8.8-8.8-5-5c-2.5-2.5-6.7-2.5-9.2,0L1.9,55.8c-2.5,2.5-2.5,6.7,0,9.2l5,5,8.8,8.8,15.5,15.5h-11.3c-1.4,0-2.5,1.1-2.5,2.5s1.1,2.5,2.5,2.5h37.2c1.4,0,2.5-1.1,2.5-2.5s-1.1-2.5-2.5-2.5h-10.6l50.9-50.9c2.5-2.5,2.5-6.7,0-9.2h0ZM93.8,39.9l-54,54c-.3.3-.6.4-1,.4h-.3c-.3,0-.7-.2-1-.4L5.4,61.5c-.6-.6-.6-1.6,0-2.2L59.3,5.4c.6-.6,1.6-.6,2.2,0l32.3,32.3c.6.6.6,1.6,0,2.2h0Z"/>
    <path class="cls-1" d="M35.9,61.3l-5.7,5.7c-1,1-2.5,1-3.5,0l-4.4-4.4c-1-1-1-2.5,0-3.5l5.7-5.7c1-1,2.5-1,3.5,0l4.4,4.4c1,1,1,2.5,0,3.5Z"/>
  </g>
</svg>