<?xml version="1.0" encoding="UTF-8"?>
<svg id="Camada_2" data-name="Camada 2" xmlns="http://www.w3.org/2000/svg" version="1.1" viewBox="0 0 93.6 93.6">
  <defs>
    <style>
      .cls-1 {
        fill: #00353e;
      }

      .cls-1, .cls-2, .cls-3, .cls-4 {
        stroke-width: 0px;
      }

      .cls-2 {
        fill: #7ab929;
      }

      .cls-3 {
        fill: #00a295;
      }

      .cls-4 {
        fill: #fff;
      }
    </style>
  </defs>
  <g>
    <g>
      <g>
        <circle class="cls-3" cx="46.7" cy="65.5" r="1.2"/>
        <path class="cls-3" d="M81.9,58.5h-35.1c-4,0-7.2,3.4-7,7.4.2,3.8,3.5,6.7,7.2,6.7h34.9c3.8.7,7-3.3,7-7.1v-9.3c-2,1.5-4.4,2.4-7.1,2.4h0ZM46.7,71.4c-3.2,0-5.8-2.6-5.8-5.8s2.6-5.8,5.8-5.8,5.8,2.6,5.8,5.8-2.6,5.8-5.8,5.8Z"/>
      </g>
      <g>
        <path class="cls-3" d="M24.3,20.2c.1.1.3.2.4.3.4.2.8.3,1.1.3.8,0,1.6-.4,2-1.2.3-.5,1.8-2.6,5.4-1.5l-1.6,4.3c-1.8-.6-3.3-.8-4.6-.8-2.1,0-3.4,2.3-2.3,4.1h0c-1.5,1.4-4,2.9-5.9,3.8,0-.8.1-2,.5-3.2.8-2.5,2.4-4.5,4.8-6h0Z"/>
        <path class="cls-3" d="M44.9,20.2c.1.1.3.2.4.3,1.1.6,2.5.2,3.2-.9,0,0,.8-1.2,2.3-1.6,1.5-.4,3.5,0,5.7,1.3.4.2.9.3,1.4.3.4,0,1.6,0,2.4.7.2.1.7.6.7,2,0,1.2.5,2.2,1.4,3,.2.2.4.4.7.5-.8.5-1.5.8-2.1,1-.6-.8-1.1-1.4-1.6-1.9.3-.4.6-.9.8-1.4.5-1.2,0-2.6-1.2-3.1-1.2-.5-2.7,0-3.1,1.3-.4,1.1-2.4,1-3,.9-2.1-.7-3.8-1-5.2-1-2.1,0-3.3,2.3-2.2,4.1h0c-1.5,1.4-4,2.9-5.9,3.8,0-.8,0-2,.5-3.2.8-2.5,2.4-4.5,4.8-6h0Z"/>
        <path class="cls-3" d="M38.1,34.8c0-.2,0-.6.4-1.3.7,1.4,1.5,2.9,1.9,3.9h-.5c-1.1-.9-1.7-1.8-1.8-2.7Z"/>
        <path class="cls-3" d="M17.6,34.8c0-.2,0-.6.4-1.3.7,1.4,1.5,2.9,1.9,3.9h-.5c-1.1-.9-1.7-1.8-1.8-2.7Z"/>
      </g>
      <g>
        <path class="cls-2" d="M14.6,26.8c-.2,1.3-.3,2.6-.2,3.6-1.4,1.8-1.6,3.5-1.5,4.7,0,.8.3,1.5.6,2.3h-2.9s3.9-10.6,3.9-10.6Z"/>
        <path class="cls-2" d="M43,5.3l37.3,13.7-6.8,18.4h-.5c1.2-3.2,2.5-6.9,3.3-11.6,0-.4,0-.8,0-1.2-.4-1.1-1.5-1.7-2.5-1.5-1.7.2-3.1.6-4.2,1,0-.4-.2-.8-.4-1.1-.5-.6-1.2-1-2-.9-.5,0-1.1,0-1.4-.1-.1-2.7-1.3-4.3-2.3-5.2-1.7-1.5-3.9-1.8-5-1.8-3.1-1.7-6.1-2.2-8.7-1.4-.9.3-1.7.6-2.4,1.1-.5-.1-1-.1-1.5,0-4.4,1.8-7.1,4.4-8.7,7.1l6-16.4h0Z"/>
        <path class="cls-2" d="M22.5,5.3l13.7,5-1.2,3.3c-3.6-1.2-6.4-.4-8.4.8-.5-.1-1-.1-1.5,0-4.4,1.8-7.1,4.4-8.7,7.1,0,0,6-16.4,6-16.3Z"/>
        <path class="cls-2" d="M34.9,30.5c-1.4,1.8-1.6,3.5-1.5,4.7,0,.8.3,1.5.6,2.3h-2.9l3.9-10.6c-.2,1.3-.3,2.6-.2,3.6Z"/>
      </g>
      <g>
        <path class="cls-2" d="M64.4,30.2c.4.6,1.1,1.1,2.1,1,.8,0,1.5-.6,1.9-1.3.3-.5,1.3-1,2.6-1.5-.9,3.5-1.9,6.4-3,9h-4.4c.6-2.4.3-4.7-.5-6.6.4-.2.8-.4,1.3-.6h0Z"/>
        <path class="cls-2" d="M45.2,37.5h0c-.2-1.2-1.1-3.1-1.9-4.7,4.5-2.3,6.4-4.8,7.2-6.1.3,0,.6.2,1,.3.1,0,.3.1.4.1.5,0,1.1.2,1.7.2s1,0,1.5-.1c0,0,0,0,0,0,0,0,5.6,4.9,3.8,9.7,0,.2-.1.4-.1.6h-13.6Z"/>
        <path class="cls-2" d="M24.7,37.5h0c-.2-1.2-1.1-3.1-1.9-4.7,4.5-2.3,6.4-4.8,7.2-6.1,0,0,.2,0,.2,0l-4,10.8h-1.6Z"/>
      </g>
      <path class="cls-3" d="M7.7,88.9c-1.7,0-3-1.3-3-3v-41.2c.2-1.5,1.4-2.6,3-2.6h68.9c1.7,0,3,1.3,3,3v8.7h-32.5c-6.3,0-11.7,4.9-12,11.2-.2,6.7,5.1,12.2,11.7,12.2h32.8v8.7c0,1.6-1.3,2.9-2.9,3H7.7ZM86,30.3c1.7,0,3,1.3,3,3v13.5c0,3.1-2,5.7-4.8,6.7v-8.3c0-3.6-2.5-6.6-5.8-7.4l2.7-7.4s4.9,0,4.9,0ZM7.7,30.3h.7l-2.7,7.4c-.3,0-.6.2-.9.3v-4.8c0-1.6,1.3-3,3-3ZM86,88.9h-2.4c.4-.9.6-1.9.6-3v-8.9c1.8-.3,3.4-1.1,4.8-2.1v11.1c0,1.7-1.3,3-3,3h0Z"/>
    </g>
    <g>
      <path class="cls-4" d="M81.9,58.5h-35.1c-4,0-7.2,3.4-7,7.4.1,2.2,1.2,4.1,2.9,5.3-.7-1-1.2-2.2-1.3-3.4-.3-.7-.4-1.4-.4-2.2,0-3.2,2.6-5.8,5.8-5.8s1.3.1,2,.3h34.8c2,0,3.9-.5,5.5-1.4v-2.5c-2,1.5-4.4,2.4-7,2.4Z"/>
      <path class="cls-4" d="M79.3,43.9c-.5-1.1-1.5-1.8-2.7-1.8H7.6c-1.5,0-2.8,1.1-3,2.6v41.2c0,1.2.7,2.3,1.8,2.7-.2-.4-.2-.8-.2-1.2v-41.2c.2-1.5,1.4-2.6,3-2.6h68.9c.4,0,.8,0,1.2.2Z"/>
      <path class="cls-4" d="M80.2,38.4l2.4-6.6h4.9c.4,0,.8,0,1.2.3-.5-1.1-1.5-1.8-2.7-1.8h-4.9l-2.7,7.4c.7.2,1.3.4,1.8.7Z"/>
    </g>
  </g>
  <g>
    <path class="cls-1" d="M86,25.7h-3.2l2.7-7.2c.2-.6.2-1.2,0-1.8s-.7-1-1.3-1.2L42.4.1c-1.2-.4-2.5.2-3,1.4l-1.6,4.5L21.9.1c-1.2-.4-2.5.2-3,1.4l-8.9,24.3c-.3-.1-.6-.2-.9-.2h-1.4C3.5,25.7,0,29.1,0,33.3v11.2c0,.2,0,.4,0,.6v40.8c0,4.2,3.4,7.6,7.6,7.6h78.3c4.2,0,7.6-3.4,7.6-7.6v-52.6c0-4.2-3.4-7.6-7.6-7.6h0ZM89,65.4c0,3.9-3.2,7.8-7.1,7.1h-34.9c-3.8,0-7.1-2.9-7.2-6.7-.2-4,3-7.4,7-7.4h35.1c2.7,0,5.1-.9,7.1-2.4v9.3h0ZM7.7,88.9c-1.7,0-3-1.3-3-3v-41.2c.2-1.5,1.4-2.6,3-2.6h68.9c1.7,0,3,1.3,3,3v8.7h-32.5c-6.3,0-11.7,4.9-12,11.2-.2,6.7,5.1,12.2,11.7,12.2h32.8v8.7c0,1.6-1.3,2.9-2.9,3H7.7ZM14.6,26.8c-.2,1.3-.3,2.6-.2,3.6-1.4,1.8-1.6,3.5-1.5,4.7,0,.8.3,1.5.6,2.3h-2.9s3.9-10.6,3.9-10.6ZM24.4,20.2c.1.1.3.2.4.3.4.2.8.3,1.1.3.8,0,1.6-.4,2-1.2.3-.5,1.8-2.6,5.4-1.5l-1.6,4.3c-1.8-.6-3.3-.8-4.6-.8-2.1,0-3.4,2.3-2.3,4.1h0c-1.5,1.4-4,2.9-5.9,3.8,0-.8.1-2,.5-3.2.8-2.5,2.4-4.5,4.8-6h0ZM34.9,30.5c-1.4,1.8-1.6,3.5-1.5,4.7,0,.8.3,1.5.6,2.3h-2.9l3.9-10.6c-.2,1.3-.3,2.6-.2,3.6ZM44.9,20.2c.1.1.3.2.4.3,1.1.6,2.5.2,3.2-.9,0,0,.8-1.2,2.3-1.6,1.5-.4,3.5,0,5.7,1.3.4.2.9.3,1.4.3.4,0,1.6,0,2.4.7.2.1.7.6.7,2,0,1.2.5,2.2,1.4,3,.2.2.4.4.7.5-.8.5-1.5.8-2.1,1-.6-.8-1.1-1.4-1.6-1.9.3-.4.6-.9.8-1.4.5-1.2,0-2.6-1.2-3.1-1.2-.5-2.7,0-3.1,1.3-.4,1.1-2.4,1-3,.9-2.1-.7-3.8-1-5.2-1-2.1,0-3.3,2.3-2.2,4.1h0c-1.5,1.4-4,2.9-5.9,3.8,0-.8,0-2,.5-3.2.8-2.5,2.4-4.5,4.8-6h0ZM64.4,30.2c.4.6,1.1,1.1,2.1,1,.8,0,1.5-.6,1.9-1.3.3-.5,1.3-1,2.6-1.5-.9,3.5-1.9,6.4-3,9h-4.4c.6-2.4.3-4.7-.5-6.6.4-.2.8-.4,1.3-.6h0ZM45.2,37.5h0c-.2-1.2-1.1-3.1-1.9-4.7,4.5-2.3,6.4-4.8,7.2-6.1.3,0,.6.2,1,.3.1,0,.3.1.4.1.5,0,1.1.2,1.7.2s1,0,1.5-.1c0,0,0,0,0,0,0,0,5.6,4.9,3.8,9.7,0,.2-.1.4-.1.6h-13.6ZM38.1,34.8c0-.2,0-.6.4-1.3.7,1.4,1.5,2.9,1.9,3.9h-.5c-1.1-.9-1.7-1.8-1.8-2.7ZM24.7,37.5h0c-.2-1.2-1.1-3.1-1.9-4.7,4.5-2.3,6.4-4.8,7.2-6.1,0,0,.2,0,.2,0l-4,10.8h-1.6ZM17.6,34.8c0-.2,0-.6.4-1.3.7,1.4,1.5,2.9,1.9,3.9h-.5c-1.1-.9-1.7-1.8-1.8-2.7ZM86,30.3c1.7,0,3,1.3,3,3v13.5c0,3.1-2,5.7-4.8,6.7v-8.3c0-3.6-2.5-6.6-5.8-7.4l2.7-7.4s4.9,0,4.9,0ZM43,5.3l37.3,13.7-6.8,18.4h-.5c1.2-3.2,2.5-6.9,3.3-11.6,0-.4,0-.8,0-1.2-.4-1.1-1.5-1.7-2.5-1.5-1.7.2-3.1.6-4.2,1,0-.4-.2-.8-.4-1.1-.5-.6-1.2-1-2-.9-.5,0-1.1,0-1.4-.1-.1-2.7-1.3-4.3-2.3-5.2-1.7-1.5-3.9-1.8-5-1.8-3.1-1.7-6.1-2.2-8.7-1.4-.9.3-1.7.6-2.4,1.1-.5-.1-1-.1-1.5,0-4.4,1.8-7.1,4.4-8.7,7.1l6-16.4h0ZM22.5,5.3l13.7,5-1.2,3.3c-3.6-1.2-6.4-.4-8.4.8-.5-.1-1-.1-1.5,0-4.4,1.8-7.1,4.4-8.7,7.1,0,0,6-16.4,6-16.3ZM7.7,30.3h.7l-2.7,7.4c-.3,0-.6.2-.9.3v-4.8c0-1.6,1.3-3,3-3ZM86,88.9h-2.4c.4-.9.6-1.9.6-3v-8.9c1.8-.3,3.4-1.1,4.8-2.1v11.1c0,1.7-1.3,3-3,3h0Z"/>
    <path class="cls-1" d="M46.7,59.7c-3.2,0-5.8,2.6-5.8,5.8s2.6,5.8,5.8,5.8,5.8-2.6,5.8-5.8-2.6-5.8-5.8-5.8ZM46.7,66.7c-.7,0-1.2-.5-1.2-1.2s.5-1.2,1.2-1.2,1.2.5,1.2,1.2-.5,1.2-1.2,1.2Z"/>
  </g>
</svg>