<svg width="22" height="31" viewBox="0 0 22 31" fill="none" xmlns="http://www.w3.org/2000/svg">
<g clip-path="url(#clip0_6207_1109)">
<path d="M20.6289 1.48071H1.34116V29.3904H20.6289V1.48071Z" fill="#BFD730"/>
<path d="M17.3492 6.17358H4.40482V23.5794H17.3492V6.17358Z" fill="white"/>
<path d="M17.5055 6.1582H6.19711V23.5794H17.5055V6.1582Z" fill="#00AE9D"/>
<path d="M19.6055 0.367432H2.40804C1.35563 0.367432 0.5 1.22306 0.5 2.27547V28.4604C0.5 29.5128 1.35563 30.3684 2.40804 30.3684H19.6055C20.6569 30.3684 21.5135 29.5128 21.5135 28.4604V2.27547C21.5135 1.22306 20.6579 0.367432 19.6055 0.367432ZM20.0125 28.4604C20.0125 28.6813 19.8264 28.8674 19.6055 28.8674H2.40804C2.18714 28.8674 2.00096 28.6813 2.00096 28.4604V2.27547C2.00096 2.05457 2.18714 1.8684 2.40804 1.8684H19.6055C19.8264 1.8684 20.0125 2.05457 20.0125 2.27547V28.4604Z" fill="#003D43"/>
<path d="M16.6045 4.86743H5.41575C4.3643 4.86743 3.50771 5.72306 3.50771 6.77547V22.4787C3.50771 23.5311 4.36334 24.3867 5.41575 24.3867H16.6055C17.6569 24.3867 18.5135 23.5311 18.5135 22.4787V6.77547C18.5135 5.72306 17.6579 4.86743 16.6055 4.86743H16.6045ZM17.0125 22.4787C17.0125 22.6996 16.8264 22.8858 16.6055 22.8858H5.41575C5.19485 22.8858 5.00868 22.6996 5.00868 22.4787V6.77547C5.00868 6.55457 5.19485 6.3684 5.41575 6.3684H16.6055C16.8264 6.3684 17.0125 6.55457 17.0125 6.77547V22.4787Z" fill="#003D43"/>
<path d="M8.72637 4.12181H13.235C13.6489 4.12181 13.9855 3.78612 13.9855 3.37133C13.9855 2.95654 13.6498 2.62085 13.235 2.62085H8.72637C8.31254 2.62085 7.97588 2.95654 7.97588 3.37133C7.97588 3.78612 8.31157 4.12181 8.72637 4.12181Z" fill="#003D43"/>
<path d="M10.9788 25.1218C10.1434 25.1218 9.4672 25.7932 9.4672 26.6209C9.4672 27.4485 10.1444 28.1199 10.9788 28.1199C11.8132 28.1199 12.4904 27.4485 12.4904 26.6209C12.4904 25.7932 11.8132 25.1218 10.9788 25.1218Z" fill="#003D43"/>
</g>
<defs>
<clipPath id="clip0_6207_1109">
<rect width="21.0135" height="30" fill="white" transform="translate(0.5 0.367432)"/>
</clipPath>
</defs>
</svg>
