<svg width="31" height="33" viewBox="0 0 31 33" fill="none" xmlns="http://www.w3.org/2000/svg">
<g clip-path="url(#clip0_6104_5155)">
<path d="M2.09838 20.3652L19.3737 1.91088L28.1297 10.1075C29.02 10.9409 29.0662 12.3412 28.2328 13.2315L13.9784 28.4587C13.145 29.349 11.7447 29.3952 10.8544 28.5618L2.09838 20.3652Z" fill="#00AE9D"/>
<path d="M12.364 30.8313C11.3903 30.8313 10.4677 30.4674 9.75262 29.7981L1.71098 22.2704C0.965023 21.5723 0.536178 20.6252 0.502125 19.6037C0.468073 18.5821 0.834134 17.6095 1.5322 16.8635L15.8426 1.57835C16.5407 0.83239 17.4878 0.403545 18.5094 0.369493C19.5299 0.334376 20.5035 0.701502 21.2495 1.39957L29.2911 8.9283C30.8309 10.3691 30.9108 12.7954 29.4689 14.3341L15.1584 29.6193C14.4603 30.3652 13.5133 30.7941 12.4917 30.8281C12.4491 30.8292 12.4055 30.8303 12.3629 30.8303L12.364 30.8313ZM18.636 2.02422C18.056 2.02422 17.4782 2.25407 17.0515 2.71058L2.74106 17.9947C2.3452 18.4182 2.1377 18.9694 2.15685 19.5494C2.176 20.1283 2.41969 20.6657 2.84215 21.0615L10.8838 28.5903C11.7574 29.4075 13.1334 29.3628 13.9506 28.4892L28.2611 13.204C28.6569 12.7805 28.8644 12.2292 28.8453 11.6493C28.8261 11.0704 28.5824 10.533 28.16 10.1372L20.1183 2.60843C19.7001 2.21683 19.1681 2.02315 18.636 2.02315V2.02422Z" fill="#003D43"/>
<path d="M20.9803 3.5229L3.81183 21.8631C3.47004 22.2282 3.48895 22.8012 3.85407 23.143L5.1188 24.327C5.48392 24.6688 6.05699 24.6499 6.39878 24.2847L23.5672 5.94458C23.909 5.57946 23.8901 5.00639 23.525 4.6646L22.2602 3.48067C21.8951 3.13887 21.322 3.15778 20.9803 3.5229Z" fill="#003D43"/>
<path d="M17.9369 32.1455H6.35166C5.89515 32.1455 5.52377 31.7752 5.52377 31.3176C5.52377 30.8601 5.89408 30.4897 6.35166 30.4897H17.9369C18.3934 30.4897 18.7648 30.8601 18.7648 31.3176C18.7648 31.7752 18.3944 32.1455 17.9369 32.1455Z" fill="#003D43"/>
</g>
<defs>
<clipPath id="clip0_6104_5155">
<rect width="30" height="31.7782" fill="white" transform="translate(0.5 0.367432)"/>
</clipPath>
</defs>
</svg>
