<svg width="31" height="31" viewBox="0 0 31 31" fill="none" xmlns="http://www.w3.org/2000/svg">
<g clip-path="url(#clip0_6104_5161)">
<path d="M26.1264 15.4334C26.1264 9.88777 21.7934 5.3935 15.7057 5.3935C13.8878 5.3935 12.1184 5.84154 10.531 6.60312L7.70526 3.54199L6.65983 9.46049C5.74693 10.4575 5.03482 11.5771 4.59172 12.7501H1.50686L2.10919 18.5281L4.67876 18.6993C5.6866 21.3687 7.89417 23.5288 10.7159 24.6454V26.8936H13.3043V25.3398C13.8908 25.4278 14.4922 25.4743 15.1054 25.4743C17.5117 25.4743 19.7371 24.772 21.55 23.5802V26.8946H24.1384V21.1907C25.3925 19.5607 26.1294 17.5767 26.1294 15.4354L26.1264 15.4334Z" fill="#00AE9D"/>
<path d="M9.13345 27.2229L9.65271 29.3879L12.6842 29.2149L13.8097 27.2229H9.13345Z" fill="#75C044"/>
<path d="M19.7856 27.2229L20.3058 29.3879L23.3363 29.2149L24.4628 27.2229H19.7856Z" fill="#75C044"/>
<path d="M30.497 9.29432C30.497 9.24685 30.4951 9.20135 30.4951 9.15684C30.4951 8.25977 29.7285 6.48541 28.2647 6.28958C27.8434 6.2332 27.4567 6.52893 27.4003 6.95026C27.3439 7.3716 27.6397 7.75832 28.061 7.8147C28.5071 7.87404 28.9571 8.77309 28.9571 9.15684C28.9571 9.21025 28.9581 9.26564 28.9591 9.32399C28.967 9.73544 28.9749 10.1241 28.5506 10.6998C28.3251 11.0064 28.0195 11.315 27.7366 11.5741C26.2629 6.74256 21.4996 3.19383 15.8659 3.19383C14.3735 3.19383 12.9186 3.44011 11.5339 3.92672L7.95846 0.370084C7.7379 0.150514 7.40756 0.0852367 7.12073 0.204912C6.8339 0.324588 6.64697 0.60449 6.64697 0.915053V7.06598C5.77067 7.9858 5.06646 9.01442 4.54622 10.134H2.45635C1.37828 10.134 0.5 11.0113 0.5 12.0904V17.3986C0.5 18.4777 1.37729 19.355 2.45635 19.355H4.55413C5.35725 21.075 6.59752 22.5842 8.17407 23.7612V28.1744C8.17407 29.2534 9.05136 30.1307 10.1304 30.1307H12.4052C13.4833 30.1307 14.3616 29.2534 14.3616 28.1744V26.1933C14.8601 26.2497 15.3645 26.2784 15.8669 26.2784C16.9153 26.2784 17.9499 26.1557 18.9548 25.9134V28.1744C18.9548 29.2534 19.8321 30.1307 20.9111 30.1307H23.1859C24.264 30.1307 25.1423 29.2534 25.1423 28.1744V22.6911C25.1423 22.5991 25.1423 22.5091 25.1413 22.4151C25.1413 22.4131 25.1413 22.4112 25.1413 22.4092C27.1491 20.3322 28.2084 17.6874 28.2084 14.7371C28.2084 14.2436 28.1747 13.7569 28.1104 13.2782C28.4952 12.9716 29.2765 12.3099 29.7908 11.6127C30.5247 10.6167 30.5089 9.78885 30.499 9.29531L30.497 9.29432ZM12.4043 28.5908H10.1294C9.90294 28.5908 9.71205 28.3999 9.71205 28.1734V27.8272H12.8226V28.1734C12.8226 28.3999 12.6317 28.5908 12.4052 28.5908H12.4043ZM23.185 28.5908H20.9101C20.6836 28.5908 20.4927 28.3999 20.4927 28.1734V27.8272H23.6033V28.1734C23.6033 28.3999 23.4124 28.5908 23.1859 28.5908H23.185ZM23.8318 21.5418C23.6834 21.6862 23.6004 21.885 23.6004 22.0917C23.6004 22.2134 23.6004 22.3212 23.6013 22.425C23.6013 22.516 23.6023 22.6021 23.6023 22.6911V26.2892H20.4918V24.8957C20.4918 24.8897 20.4918 24.8848 20.4908 24.8789V23.1727C20.4908 22.7484 20.1466 22.4032 19.7213 22.4032C19.296 22.4032 18.9518 22.7474 18.9518 23.1727V24.323C17.9529 24.599 16.9173 24.7394 15.865 24.7394C15.3615 24.7394 14.8581 24.7068 14.3616 24.6425V23.1727C14.3616 22.7484 14.0174 22.4032 13.5921 22.4032C13.1668 22.4032 12.8226 22.7474 12.8226 23.1727V25.2656C12.8226 25.2774 12.8207 25.2883 12.8207 25.3002V26.2883H9.71008V23.3666C9.71008 23.1154 9.58743 22.879 9.38072 22.7356C8.07912 21.8286 7.0238 20.6734 6.28102 19.353H7.41052C7.83483 19.353 8.18001 19.0088 8.18001 18.5835C8.18001 18.1582 7.83582 17.814 7.41052 17.814H4.48787C4.47798 17.814 4.46908 17.815 4.45918 17.815H2.45437C2.22788 17.815 2.03699 17.6241 2.03699 17.3976V12.0894C2.03699 11.8629 2.22788 11.672 2.45437 11.672H5.04767C5.36021 11.672 5.64111 11.4831 5.75979 11.1943C6.25531 9.98271 6.99512 8.88288 7.95747 7.92448C8.10286 7.78008 8.18396 7.58425 8.18396 7.37951V2.76557L10.797 5.3658C11.0136 5.58141 11.3381 5.64867 11.6229 5.53592C12.968 5.00282 14.3952 4.7328 15.865 4.7328C21.822 4.7328 26.6674 9.22014 26.6674 14.7361C26.6674 17.3739 25.6863 19.7279 23.8298 21.5418H23.8318Z" fill="#003D43"/>
<path d="M14.236 6.29744C13.8156 6.3558 13.5229 6.7435 13.5802 7.16385C13.6376 7.5842 14.0253 7.87894 14.4457 7.82157C14.4773 7.81762 17.6502 7.41112 19.1526 9.09647C19.3049 9.26658 19.5156 9.35362 19.7272 9.35362C19.9092 9.35362 20.0922 9.28933 20.2386 9.15878C20.556 8.87591 20.5837 8.39028 20.3009 8.07279C18.2496 5.77028 14.3982 6.27469 14.235 6.29744H14.236Z" fill="#003D43"/>
<path d="M9.33028 10.1252C8.68838 10.1252 8.16913 10.6455 8.16913 11.2864C8.16913 11.9273 8.68937 12.4475 9.33028 12.4475C9.97119 12.4475 10.4914 11.9273 10.4914 11.2864C10.4914 10.6455 9.97119 10.1252 9.33028 10.1252Z" fill="#003D43"/>
</g>
<defs>
<clipPath id="clip0_6104_5161">
<rect width="30" height="29.9832" fill="white" transform="translate(0.5 0.145508)"/>
</clipPath>
</defs>
</svg>
