<svg width="36" height="36" viewBox="0 0 36 36" fill="none" xmlns="http://www.w3.org/2000/svg">
<path d="M27.7524 27.728C27.416 27.9039 27.0486 27.9966 26.6721 27.9966C26.2955 27.9966 25.9251 27.9039 25.5886 27.728C25.6627 27.5582 25.7244 27.3978 25.7738 27.2527C25.8603 27.2589 25.9498 27.262 26.0362 27.262H26.5856C26.9128 27.262 27.2338 27.2249 27.5394 27.157C27.595 27.3267 27.666 27.5212 27.7555 27.7311L27.7524 27.728Z" fill="#C9D200"/>
<path d="M26.5825 25.8237H26.0331C24.3879 25.8237 23.0483 24.4841 23.0483 22.8389V22.1166C23.4249 22.0024 23.6934 21.8049 23.8662 21.632C24.2274 21.2678 24.3817 20.8202 24.4465 20.4931C24.5885 20.4035 24.7151 20.3109 24.8324 20.2122C25.9621 20.8573 27.1814 21.0394 28.1969 21.0394C28.7185 21.0394 29.1877 20.99 29.5612 20.9345L29.5674 22.842C29.5674 24.4872 28.2277 25.8268 26.5825 25.8268V25.8237Z" fill="#C9D200"/>
<path d="M6.4203 21.4005C7.19198 21.24 7.71051 20.8264 8.04387 20.4282C9.29707 21.3851 10.649 21.5086 11.254 21.5086C11.4423 21.5086 11.5565 21.4962 11.5782 21.4962C11.7016 21.4838 11.8127 21.4375 11.9084 21.3696C11.9701 21.4591 12.0412 21.5486 12.1245 21.632C12.2974 21.8079 12.5628 22.0024 12.9425 22.1166V22.8389C12.9425 24.4841 11.6028 25.8237 9.95764 25.8237H9.4082C7.76299 25.8237 6.42336 24.4841 6.42336 22.8389V21.4005H6.4203Z" fill="#C9D200"/>
<path d="M9.4051 27.2589H9.95454C10.0441 27.2589 10.1305 27.2558 10.2169 27.2497C10.2663 27.3947 10.328 27.5553 10.4021 27.725C10.0656 27.901 9.69836 27.9936 9.31561 27.9936C8.93286 27.9936 8.57172 27.901 8.23527 27.725C8.32478 27.5182 8.39576 27.3206 8.45132 27.1509C8.75999 27.2188 9.07791 27.2559 9.4051 27.2559V27.2589Z" fill="#C9D200"/>
<path d="M28.9284 16.4309C29.1013 16.4062 29.6816 16.3167 30.2835 16.1253C30.2557 16.4339 30.1971 16.7488 30.0859 16.9926C29.8452 17.5205 29.8699 18.1162 30.1477 18.5853C30.1847 18.6471 30.2711 18.8446 30.2711 19.3076C30.1569 19.3076 30.052 19.3385 29.9563 19.3848C29.4871 19.5021 27.3758 19.9528 25.6164 18.999C25.6226 18.9712 25.6318 18.9434 25.638 18.9156C25.8263 18.0483 25.4467 17.2828 25.2121 16.9155C25.1966 16.4371 25.138 16.042 25.0516 15.7209C27.1567 15.8105 28.5364 16.3753 28.5488 16.3815C28.6691 16.4309 28.7988 16.4494 28.9284 16.4309Z" fill="#00AE9D"/>
<path d="M6.44805 17.1687C6.44805 17.1687 6.46347 17.1687 6.46964 17.1687C6.79066 17.1687 7.03141 16.9589 7.11784 16.644C7.14562 16.5453 7.43579 15.6841 8.5717 15.6841C9.615 15.6841 10.4391 15.7828 10.9021 15.8569C10.8342 16.1532 10.7879 16.502 10.7756 16.9187C10.541 17.2861 10.1613 18.0515 10.3496 18.9189C10.4453 19.351 10.6645 19.7338 11.0009 20.064C10.4114 20.0239 9.31559 19.8078 8.41736 18.8263C8.24451 18.638 7.98829 18.5516 7.73827 18.604C7.48825 18.6565 7.28762 18.8356 7.20737 19.0763C7.17341 19.172 6.84005 20.0054 5.78132 20.0332C5.74428 19.601 5.7196 19.1164 5.7196 18.5948C5.7196 17.3292 6.30607 17.1842 6.45423 17.1687H6.44805Z" fill="#7DB61C"/>
<path d="M17.983 17.8692C17.983 17.8692 17.9892 17.8692 17.9923 17.8692C17.9954 17.8692 17.9984 17.8692 18.0015 17.8692C18.4707 17.8692 18.8936 17.7859 19.3813 17.4402C19.5573 17.5791 19.7702 17.7025 20.0141 17.7797C20.1561 18.2705 20.4308 19.0205 20.8845 19.5885V21.8356C20.8845 23.24 19.8875 24.3821 18.6652 24.3821H17.9954C17.9954 24.3821 17.9954 24.3821 17.9923 24.3821C17.9892 24.3821 17.9923 24.3821 17.9892 24.3821H17.3194C16.0971 24.3821 15.1001 23.24 15.097 21.8356V19.5885C15.5507 19.0205 15.8254 18.2674 15.9705 17.7797C16.2144 17.7025 16.4274 17.5791 16.6033 17.4402C17.091 17.7859 17.5108 17.8692 17.983 17.8692Z" fill="#7DB61C"/>
<path d="M17.9923 27.9999C17.3657 27.9999 16.77 27.8024 16.2792 27.4412C16.7885 26.9906 17.0601 26.3671 17.1805 25.8176C17.2268 25.8176 17.2731 25.8207 17.3194 25.8207H17.9892C17.9892 25.8207 17.9892 25.8207 17.9923 25.8207C17.9954 25.8207 17.9923 25.8207 17.9954 25.8207H18.6652C18.7115 25.8207 18.7578 25.8207 18.8041 25.8176C18.9245 26.3671 19.1961 26.9906 19.7054 27.4412C19.2146 27.8024 18.6189 27.9999 17.9923 27.9999Z" fill="#7DB61C"/>
<path d="M12.5566 15.6098C12.7851 15.4864 12.9301 15.2425 12.9301 14.9802C12.9301 13.6868 14.1679 13.551 14.4087 13.5356C14.5815 13.5263 14.7482 13.4584 14.8717 13.338C15.1649 13.0571 15.418 12.8164 16.5415 12.8164C16.9953 12.8164 17.2762 12.8812 17.4274 12.9337C17.5725 13.0603 17.7701 13.1405 17.9892 13.1405C18.2084 13.1405 18.3966 13.0633 18.5386 12.943C18.6713 12.8936 18.9491 12.8164 19.4368 12.8164C20.5604 12.8164 20.8135 13.0571 21.1068 13.338C21.2302 13.4553 21.3969 13.5263 21.5667 13.5356C21.8136 13.551 23.0514 13.6868 23.0514 14.9802C23.0514 15.2456 23.1964 15.4864 23.4249 15.6098C23.4743 15.6592 23.7737 15.9957 23.7737 17.1501C23.7737 17.3137 23.8292 17.4711 23.9311 17.6007C24.0175 17.7088 24.32 18.1965 24.2274 18.6162C24.1626 18.9095 23.9002 19.1749 23.4465 19.4064C23.2026 19.5299 23.0483 19.7737 23.0514 20.0454C23.0452 20.3818 22.9186 20.783 22.3383 20.783C22.3322 20.783 22.326 20.783 22.3198 20.783V19.3169C22.3198 19.1255 22.2427 18.9434 22.1068 18.8076C21.6531 18.3539 21.366 17.3538 21.295 17.005C21.2271 16.6716 20.9339 16.4309 20.5913 16.4309C20.2733 16.4309 20.1005 16.1315 20.085 16.1068C19.9801 15.9 19.7826 15.7549 19.5511 15.7179C19.3196 15.6839 19.088 15.7611 18.9244 15.9277C18.4337 16.4309 18.2608 16.4309 17.9954 16.4309C17.9923 16.4309 17.9892 16.4309 17.9861 16.4309C17.983 16.4309 17.9799 16.4309 17.9768 16.4309C17.7114 16.4309 17.5385 16.4309 17.0478 15.9277C16.8842 15.7611 16.6526 15.6839 16.4211 15.7179C16.1896 15.7549 15.9921 15.9 15.8872 16.1068C15.8872 16.1099 15.705 16.4309 15.3809 16.4309C15.0383 16.4309 14.7451 16.6716 14.6772 17.005C14.6124 17.3291 14.3191 18.3539 13.8654 18.8076C13.7296 18.9434 13.6555 19.1255 13.6555 19.3169V20.783C13.6555 20.783 13.6432 20.783 13.637 20.783C13.0567 20.783 12.927 20.3818 12.9239 20.0515C12.9239 19.7768 12.7727 19.5268 12.5288 19.4033C12.0751 19.1749 11.8127 18.9126 11.7479 18.6193C11.6553 18.2119 11.9331 17.7427 12.0442 17.5976C12.1461 17.4711 12.2017 17.3106 12.2017 17.147C12.2017 15.9957 12.5011 15.6561 12.5505 15.6068L12.5566 15.6098Z" fill="#49479D"/>
<path d="M17.9923 30.8857H12.2048V29.5307C12.4486 29.1881 13.6462 28.475 14.85 28.0923C15.668 28.9535 16.7885 29.4412 17.9923 29.4412C19.1961 29.4412 20.3166 28.9535 21.1345 28.0923C22.3353 28.475 23.536 29.1881 23.7798 29.5307V30.8857H17.9923Z" fill="#00AE9D"/>
<path d="M31.0058 30.3765V30.8858H25.2151V29.4381C25.2151 29.3301 25.1966 29.2251 25.1627 29.1202C25.638 29.327 26.1442 29.435 26.669 29.435C27.3295 29.435 27.9654 29.2653 28.5364 28.9412C28.7833 29.1819 29.0766 29.361 29.4223 29.4227C30.2526 29.5739 30.9132 30.1481 31.0058 30.3796V30.3765Z" fill="#7DB61C"/>
<path d="M6.56226 29.4195C6.90797 29.3578 7.20121 29.1757 7.44814 28.938C8.01918 29.2621 8.65506 29.4318 9.31561 29.4318C9.84034 29.4318 10.3496 29.3238 10.8219 29.117C10.7879 29.2219 10.7663 29.33 10.7663 29.4349V30.8826H4.97879V30.3733C5.07139 30.1418 5.73194 29.5708 6.56226 29.4164V29.4195Z" fill="#49479D"/>
<path d="M16.9397 5.5752C17.0694 5.5752 17.3286 5.75421 17.4984 5.8715L17.5848 5.93322C17.5848 5.93322 17.591 5.93322 17.5941 5.93631C17.6188 5.95483 17.6466 5.96718 17.6744 5.97953C17.6898 5.9857 17.7052 5.99807 17.7207 6.00425C17.7454 6.01351 17.77 6.01966 17.7947 6.02892C17.8133 6.0351 17.8349 6.04125 17.8534 6.04434C17.8781 6.05051 17.9028 6.05052 17.9305 6.0536C17.9521 6.0536 17.9707 6.05978 17.9923 6.05978C18.0201 6.05978 18.0478 6.05669 18.0756 6.0536C18.0941 6.0536 18.1096 6.0536 18.1281 6.04743C18.1528 6.04125 18.1775 6.03201 18.2022 6.02584C18.2207 6.01966 18.2423 6.01656 18.2608 6.0073C18.2794 5.99804 18.2979 5.98879 18.3164 5.97953C18.3411 5.96718 18.3658 5.95483 18.3874 5.9394C18.3874 5.9394 18.3935 5.93939 18.3966 5.93322L18.4831 5.8715C18.6528 5.75421 18.9121 5.5752 19.0417 5.5752C19.6591 5.5752 20.1622 6.06286 20.1622 6.66167C20.1622 7.26048 19.477 8.43032 17.9892 9.71129C16.5014 8.43032 15.8162 7.2543 15.8162 6.66167C15.8162 6.06903 16.3193 5.5752 16.9366 5.5752H16.9397Z" fill="#00AE9D"/>
<path d="M8.04081 20.4281C7.70745 20.8263 7.18888 21.2399 6.41721 21.4004V22.8388C6.41721 23.7555 6.8339 24.5766 7.48519 25.1229C7.04997 24.6044 6.78759 23.9377 6.78759 23.2061V21.7677C7.55927 21.6072 8.07783 21.1936 8.4112 20.7954C9.66439 21.7523 11.0164 21.8758 11.6214 21.8758C11.8097 21.8758 11.9238 21.8634 11.9454 21.8634C12.0597 21.8511 12.1646 21.8078 12.2541 21.7492C12.2047 21.7091 12.1615 21.669 12.1214 21.6289C12.0381 21.5455 11.967 21.456 11.9053 21.3665C11.8096 21.4313 11.6985 21.4776 11.5751 21.493C11.5534 21.493 11.4392 21.5054 11.2509 21.5054C10.6459 21.5054 9.29401 21.3819 8.04081 20.425V20.4281Z" fill="white"/>
<path d="M9.77552 27.6292H10.3249C10.3249 27.6292 10.3496 27.6292 10.362 27.6292C10.3064 27.4965 10.257 27.3669 10.2169 27.2527C10.1305 27.2589 10.041 27.262 9.95454 27.262H9.4051C9.07791 27.262 8.7569 27.2249 8.45132 27.157C8.39576 27.3267 8.32478 27.5212 8.23527 27.7311C8.38034 27.8052 8.53158 27.8638 8.68591 27.9071C8.73839 27.7712 8.78467 27.6416 8.82171 27.5274C9.13038 27.5953 9.44833 27.6323 9.77552 27.6323V27.6292Z" fill="white"/>
<path d="M25.6411 18.9187C25.6349 18.9465 25.6257 18.9743 25.6195 19.0021C25.7553 19.0761 25.8911 19.1379 26.03 19.1965C26.172 18.3693 25.8109 17.6439 25.5855 17.289C25.5701 16.8105 25.5115 16.4154 25.425 16.0944C27.5302 16.1839 28.9099 16.7488 28.9222 16.755C29.0426 16.8044 29.1723 16.8229 29.3019 16.8044C29.4316 16.7858 29.7865 16.7333 30.2063 16.6253C30.2434 16.4648 30.2711 16.295 30.2866 16.1253C29.6878 16.3197 29.1044 16.4092 28.9315 16.4309C28.8019 16.4494 28.6722 16.4309 28.5518 16.3815C28.5395 16.3753 27.1598 15.8105 25.0546 15.7209C25.1411 16.042 25.1997 16.4371 25.2151 16.9155C25.4497 17.2828 25.8294 18.0483 25.6411 18.9156V18.9187Z" fill="white"/>
<path d="M6.11467 19.9899C6.09306 19.6689 6.08072 19.3263 6.08072 18.962C6.08072 17.6965 6.6672 17.5514 6.81536 17.536C6.82153 17.536 6.83081 17.536 6.83698 17.536C7.158 17.536 7.39876 17.3261 7.48518 17.0112C7.51296 16.9125 7.8031 16.0513 8.939 16.0513C9.71376 16.0513 10.3651 16.1069 10.8404 16.1655C10.8589 16.0575 10.8774 15.9525 10.899 15.8537C10.436 15.7797 9.615 15.6809 8.56861 15.6809C7.43271 15.6809 7.14257 16.5421 7.11479 16.6409C7.03145 16.9557 6.78758 17.1656 6.46656 17.1656C6.46039 17.1656 6.45114 17.1656 6.44497 17.1656C6.29989 17.181 5.71033 17.3261 5.71033 18.5916C5.71033 19.1132 5.73501 19.5979 5.77205 20.03C5.89552 20.0269 6.00667 20.0115 6.11162 19.9899H6.11467Z" fill="white"/>
<path d="M15.4704 19.9621C15.9242 19.3941 16.1989 18.641 16.3409 18.1533C16.5847 18.0761 16.7977 17.9526 16.9737 17.8137C17.4614 18.1594 17.8811 18.2428 18.3534 18.2428C18.3565 18.2428 18.3596 18.2428 18.3627 18.2428C18.3658 18.2428 18.3689 18.2428 18.3719 18.2428C18.8411 18.2428 19.264 18.1594 19.7517 17.8137C19.8535 17.894 19.9678 17.9681 20.0943 18.0298C20.0665 17.9434 20.0387 17.857 20.0171 17.7829C19.7733 17.7057 19.5603 17.5823 19.3844 17.4434C18.8967 17.7891 18.4769 17.8724 18.0046 17.8724C18.0015 17.8724 17.9985 17.8724 17.9954 17.8724C17.9923 17.8724 17.9892 17.8724 17.9861 17.8724C17.5169 17.8724 17.0941 17.7891 16.6064 17.4434C16.4304 17.5823 16.2174 17.7057 15.9736 17.7829C15.8316 18.2737 15.5569 19.0237 15.1031 19.5917V21.8388C15.1031 22.7092 15.4859 23.4747 16.0662 23.9346C15.6989 23.4809 15.4735 22.8759 15.4704 22.2092V19.9621Z" fill="white"/>
<path d="M17.5509 26.188C17.5972 26.188 17.6435 26.1911 17.6898 26.1911H18.3596C18.3596 26.1911 18.3596 26.1911 18.3627 26.1911C18.3658 26.1911 18.3627 26.1911 18.3658 26.1911H18.909C18.8658 26.0645 18.8319 25.938 18.8041 25.8176C18.7578 25.8176 18.7115 25.8207 18.6652 25.8207H17.9954C17.9954 25.8207 17.9954 25.8207 17.9923 25.8207C17.9892 25.8207 17.9923 25.8207 17.9892 25.8207H17.3194C17.2731 25.8207 17.2268 25.8207 17.1805 25.8176C17.0601 26.3671 16.7885 26.9906 16.2792 27.4412C16.4242 27.5492 16.5817 27.6388 16.7453 27.719C17.1928 27.2776 17.4367 26.7004 17.5509 26.188Z" fill="white"/>
<path d="M12.2171 19.2151C12.1708 19.141 12.1399 19.067 12.1214 18.9867C12.0288 18.5793 12.3066 18.1101 12.4177 17.965C12.5196 17.8385 12.5751 17.678 12.5751 17.5144C12.5751 16.363 12.8745 16.0235 12.9239 15.9741C13.1524 15.8507 13.2974 15.6068 13.2974 15.3444C13.2974 14.0511 14.5352 13.9153 14.7759 13.8999C14.9488 13.8906 15.1155 13.8227 15.239 13.7024C15.5322 13.4215 15.7853 13.1807 16.9089 13.1807C17.3626 13.1807 17.6435 13.2455 17.7947 13.298C17.9398 13.4245 18.1373 13.5048 18.3565 13.5048C18.5757 13.5048 18.764 13.4276 18.9059 13.3072C19.0387 13.2579 19.3165 13.1807 19.8042 13.1807C20.9277 13.1807 21.1808 13.4215 21.4741 13.7024C21.5975 13.8196 21.7642 13.8906 21.934 13.8999C22.0667 13.9092 22.4803 13.9524 22.8384 14.1869C22.4742 13.619 21.7457 13.5387 21.5636 13.5295C21.3938 13.5202 21.2271 13.4493 21.1037 13.332C20.8104 13.0511 20.5573 12.8103 19.4338 12.8103C18.9461 12.8103 18.6683 12.8844 18.5356 12.9369C18.3936 13.0603 18.1991 13.1344 17.9861 13.1344C17.7731 13.1344 17.5694 13.0542 17.4243 12.9276C17.2731 12.8751 16.9922 12.8103 16.5384 12.8103C15.4149 12.8103 15.1618 13.0511 14.8686 13.332C14.742 13.4523 14.5784 13.5233 14.4056 13.5295C14.1617 13.5449 12.927 13.6807 12.927 14.9741C12.927 15.2395 12.782 15.4803 12.5535 15.6037C12.5042 15.6531 12.2047 15.9896 12.2047 17.144C12.2047 17.3076 12.1492 17.465 12.0473 17.5946C11.9362 17.7366 11.6584 18.2089 11.751 18.6163C11.8004 18.8324 11.9578 19.033 12.2171 19.212V19.2151Z" fill="white"/>
<path d="M15.2204 28.4598C16.0384 29.321 17.1589 29.8086 18.3627 29.8086C19.5665 29.8086 20.687 29.321 21.5049 28.4598C22.3939 28.7437 23.2798 29.2067 23.7798 29.5679V29.5277C23.536 29.1851 22.3352 28.4721 21.1345 28.0894C20.3165 28.9505 19.1961 29.4382 17.9923 29.4382C16.7885 29.4382 15.668 28.9505 14.85 28.0894C13.6493 28.4721 12.4486 29.1851 12.2047 29.5277V30.8828H12.5751V29.895C12.819 29.5524 14.0166 28.8394 15.2204 28.4567V28.4598Z" fill="white"/>
<path d="M25.5331 29.4875C26.0084 29.6943 26.5146 29.8024 27.0394 29.8024C27.6999 29.8024 28.3358 29.6326 28.9068 29.3085C29.1538 29.5493 29.447 29.7283 29.7927 29.79C30.2681 29.8764 30.6878 30.1017 30.978 30.324C30.8206 30.0678 30.194 29.5616 29.4223 29.4227C29.0766 29.361 28.7833 29.1788 28.5364 28.9412C27.9654 29.2653 27.3295 29.435 26.669 29.435C26.1442 29.435 25.6349 29.327 25.1627 29.1202C25.1966 29.2251 25.2182 29.3332 25.2182 29.4381V30.8858H25.5886V29.8085C25.5886 29.7005 25.5701 29.5955 25.5362 29.4906L25.5331 29.4875Z" fill="white"/>
<path d="M6.93265 29.7899C7.27836 29.7282 7.5716 29.5461 7.81853 29.3084C8.38957 29.6325 9.02544 29.8023 9.686 29.8023C10.0564 29.8023 10.4206 29.7467 10.7694 29.6418V29.4349C10.7694 29.3269 10.791 29.2219 10.825 29.117C10.3496 29.3238 9.8434 29.4318 9.31866 29.4318C8.65811 29.4318 8.02227 29.2621 7.45123 28.938C7.2043 29.1787 6.91106 29.3578 6.56535 29.4195C5.73503 29.5708 5.07448 30.1449 4.98188 30.3764V30.8857H5.35227V30.7468C5.44487 30.5153 6.10542 29.9442 6.93574 29.7899H6.93265Z" fill="white"/>
<path d="M17.5354 9.29768C16.6187 8.33465 16.1896 7.50126 16.1896 7.03209C16.1896 6.43328 16.6928 5.94558 17.3101 5.94558C17.4398 5.94558 17.6991 6.12459 17.8688 6.24189L17.9553 6.30364C17.9553 6.30364 17.9614 6.30364 17.9645 6.30673C17.9892 6.32525 18.017 6.3376 18.0448 6.34995C18.0602 6.35612 18.0756 6.36846 18.0911 6.37463C18.1158 6.38389 18.1404 6.39005 18.1651 6.39931C18.1837 6.40548 18.2053 6.41167 18.2238 6.41476C18.2485 6.42093 18.2732 6.42094 18.301 6.42403C18.3226 6.42403 18.3411 6.43017 18.3627 6.43017C18.3905 6.43017 18.4183 6.42711 18.446 6.42403C18.4646 6.42403 18.48 6.42402 18.4985 6.41785C18.5232 6.41167 18.5479 6.40239 18.5726 6.39622C18.5911 6.39005 18.6127 6.38698 18.6312 6.37772C18.6498 6.36846 18.6683 6.35921 18.6868 6.34995C18.7115 6.3376 18.7362 6.32525 18.7578 6.30982C18.7578 6.30982 18.764 6.30982 18.7671 6.30364L18.8535 6.24189C19.0232 6.12459 19.2825 5.94558 19.4122 5.94558C19.6313 5.94558 19.835 6.00732 20.0079 6.11227C19.8134 5.79126 19.4523 5.5752 19.0417 5.5752C18.9121 5.5752 18.6528 5.75421 18.4831 5.8715L18.3966 5.93322C18.3966 5.93322 18.3905 5.93323 18.3874 5.9394C18.3658 5.95483 18.3411 5.96718 18.3164 5.97953C18.2979 5.98879 18.2794 6.00112 18.2608 6.0073C18.2423 6.01656 18.2207 6.01966 18.2022 6.02584C18.1775 6.0351 18.1528 6.04125 18.1281 6.04743C18.1096 6.05051 18.0941 6.05052 18.0756 6.0536C18.0478 6.05669 18.0201 6.05978 17.9923 6.05978C17.9707 6.05978 17.9522 6.05669 17.9305 6.0536C17.9059 6.0536 17.8812 6.0536 17.8534 6.04434C17.8349 6.04125 17.8133 6.03201 17.7947 6.02892C17.7701 6.02275 17.7454 6.01659 17.7207 6.00425C17.7052 5.99807 17.6898 5.98879 17.6744 5.97953C17.6466 5.96718 17.6188 5.95174 17.5941 5.93631C17.5941 5.93631 17.5879 5.93631 17.5848 5.93322L17.4984 5.8715C17.3286 5.75421 17.0694 5.5752 16.9397 5.5752C16.3224 5.5752 15.8193 6.06286 15.8193 6.66167C15.8193 7.18949 16.3656 8.18031 17.5354 9.29768Z" fill="white"/>
<path d="M17.5412 11.1476C17.675 11.2534 17.8336 11.3031 17.9891 11.3031C17.9891 11.3031 17.9954 11.3031 17.9985 11.3031C18.0016 11.3031 18.0047 11.3031 18.0078 11.3031C18.1664 11.3031 18.3219 11.2534 18.4557 11.1476C20.4463 9.5738 21.6375 7.86309 21.6375 6.5723C21.6375 5.16955 20.4805 4.02808 19.0591 4.02808C18.6454 4.02808 18.2908 4.18981 17.9985 4.3702C17.7061 4.19292 17.3546 4.02808 16.9378 4.02808C15.5164 4.02808 14.3594 5.16955 14.3594 6.5723C14.3594 7.86309 15.5475 9.5738 17.5412 11.1476ZM16.9378 5.47439C17.0685 5.47439 17.3297 5.65477 17.5008 5.77297L17.5879 5.83516C17.5879 5.83516 17.5941 5.83516 17.5972 5.83827C17.6221 5.85693 17.6501 5.86938 17.6781 5.88182C17.6936 5.88804 17.7092 5.90051 17.7248 5.90673C17.7496 5.91606 17.7745 5.92226 17.7994 5.9316C17.8181 5.93782 17.8398 5.94401 17.8585 5.94712C17.8834 5.95334 17.9082 5.95335 17.9362 5.95646C17.958 5.95646 17.9767 5.96269 17.9985 5.96269C18.0265 5.96269 18.0544 5.95957 18.0824 5.95646C18.1011 5.95646 18.1166 5.95646 18.1353 5.95024C18.1602 5.94402 18.1851 5.9347 18.2099 5.92848C18.2286 5.92226 18.2504 5.91913 18.2691 5.9098C18.2877 5.90047 18.3064 5.89115 18.325 5.88182C18.3499 5.86938 18.3748 5.85694 18.3966 5.84138C18.3966 5.84138 18.4028 5.84138 18.4059 5.83516L18.493 5.77297C18.6641 5.65477 18.9253 5.47439 19.0559 5.47439C19.678 5.47439 20.185 5.96579 20.185 6.56919C20.185 7.17259 19.4945 8.35141 17.9954 9.6422C16.4962 8.35141 15.8057 7.16637 15.8057 6.56919C15.8057 5.97201 16.3127 5.47439 16.9347 5.47439H16.9378Z" fill="#003641"/>
<path d="M10.3128 4.63454L12.4994 6.09019C12.6238 6.17106 12.7607 6.2115 12.9006 6.2115C13.1339 6.2115 13.3641 6.09951 13.504 5.88801C13.7249 5.55521 13.6346 5.10422 13.3018 4.88338L11.1153 3.42773C10.7825 3.2069 10.3315 3.29711 10.1107 3.62991C9.88985 3.96272 9.98002 4.41371 10.3128 4.63454Z" fill="#003641"/>
<path d="M12.4994 9.25952L10.3128 10.7152C9.98002 10.936 9.88985 11.387 10.1107 11.7198C10.2506 11.9282 10.4808 12.0433 10.7141 12.0433C10.8509 12.0433 10.9909 12.0028 11.1153 11.922L13.3018 10.4663C13.6346 10.2455 13.7249 9.7945 13.504 9.4617C13.2832 9.12889 12.8322 9.03869 12.4994 9.25952Z" fill="#003641"/>
<path d="M9.25841 8.39812H12.1604C12.5616 8.39812 12.8851 8.07466 12.8851 7.67342C12.8851 7.27219 12.5616 6.94873 12.1604 6.94873H9.25841C8.85718 6.94873 8.53372 7.27219 8.53372 7.67342C8.53372 8.07466 8.85718 8.39812 9.25841 8.39812Z" fill="#003641"/>
<path d="M32.561 30.4317C32.561 29.3741 31.0898 28.3166 29.7773 28.0771C29.5564 28.0367 29.177 27.368 28.9655 26.6775C30.25 25.8937 31.1116 24.4785 31.1116 22.8673L31.1054 21.2189C31.4662 20.9452 31.8207 20.4008 31.8207 19.3153C31.8207 18.7088 31.7119 18.2174 31.4942 17.8504C31.4569 17.785 31.4599 17.6793 31.5035 17.5798C31.9887 16.516 31.8425 15.0417 31.8239 14.8769C31.7959 14.6094 31.6186 14.3792 31.3666 14.2828C31.1147 14.1833 30.8317 14.2331 30.6295 14.4103C30.3589 14.6436 29.5595 14.8582 28.9997 14.9547C28.4461 14.7525 26.81 14.2424 24.5488 14.2424C24.5239 14.2424 24.499 14.2486 24.4741 14.2486C24.2969 13.4555 23.8148 12.8272 23.0683 12.4384C22.6422 12.2176 22.2254 12.1212 21.9579 12.0807C21.4789 11.6639 20.8537 11.3218 19.4572 11.3218C18.7791 11.3218 18.3157 11.4337 18.0078 11.5551C17.6967 11.4337 17.224 11.3218 16.5397 11.3218C15.1432 11.3218 14.518 11.6639 14.039 12.0807C13.7715 12.1212 13.3547 12.2176 12.9286 12.4384C12.1137 12.8645 11.6098 13.5768 11.4823 14.4757C11.1495 14.4072 10.0453 14.2113 8.50262 14.2113C6.9599 14.2113 6.16364 15.104 5.80906 15.8131C5.17145 16.0277 4.17614 16.6684 4.17614 18.5937C4.17614 20.7958 4.58048 22.379 4.59914 22.4474C4.6458 22.6216 4.75156 22.7647 4.88842 22.858V22.8704C4.88842 24.4816 5.74999 25.8968 7.03455 26.6806C6.82305 27.3711 6.44671 28.0398 6.22276 28.0802C4.90709 28.3197 3.439 29.3773 3.439 30.4348V31.7038H3.44211C3.44211 32.105 3.76557 32.4285 4.1668 32.4285H31.8301C32.2313 32.4285 32.5548 32.105 32.5548 31.7038H32.5579V30.4348L32.561 30.4317ZM31.1116 30.4659V30.9791H25.2766V29.5203C25.2766 29.4114 25.258 29.3057 25.2237 29.1999C25.7027 29.4083 26.2128 29.5172 26.7416 29.5172C27.4072 29.5172 28.0479 29.3461 28.6233 29.0196C28.8721 29.2622 29.1676 29.4426 29.516 29.5048C30.3527 29.6572 31.0183 30.2357 31.1116 30.469V30.4659ZM17.9985 30.9791H12.1666V29.6136C12.4123 29.2684 13.6191 28.5499 14.8321 28.1642C15.6564 29.032 16.7854 29.5234 17.9985 29.5234C19.2115 29.5234 20.3405 29.032 21.1648 28.1642C22.3747 28.5499 23.5846 29.2684 23.8303 29.6136V30.9791H17.9985ZM17.9891 17.8659C17.9891 17.8659 17.9954 17.8659 17.9985 17.8659C18.0016 17.8659 18.0047 17.8659 18.0078 17.8659C18.4805 17.8659 18.9067 17.7819 19.3981 17.4336C19.5754 17.5735 19.79 17.6979 20.0357 17.7757C20.1788 18.2703 20.4556 19.0261 20.9128 19.5984V21.8627C20.9128 23.2779 19.9082 24.4287 18.6765 24.4287H18.0016C18.0016 24.4287 18.0016 24.4287 17.9985 24.4287C17.9954 24.4287 17.9985 24.4287 17.9953 24.4287H17.3204C16.0887 24.4287 15.0841 23.2779 15.081 21.8627V19.5984C15.5382 19.0261 15.815 18.2671 15.9612 17.7757C16.2069 17.6979 16.4215 17.5735 16.5988 17.4336C17.0902 17.7819 17.5132 17.8659 17.9891 17.8659ZM23.9578 27.8656C22.9843 27.2467 21.7246 26.7925 21.0901 26.6339C20.496 26.4846 20.2907 25.8999 20.2223 25.508C20.8693 25.1814 21.4136 24.6589 21.793 24.0057C22.1507 25.3618 23.1336 26.466 24.412 26.9916C24.3 27.2902 24.1444 27.6261 23.9578 27.8625V27.8656ZM18.0016 28.074C17.3702 28.074 16.7699 27.875 16.2753 27.511C16.7885 27.0569 17.0623 26.4287 17.1836 25.875C17.2302 25.875 17.2769 25.8781 17.3235 25.8781H17.9985C17.9985 25.8781 17.9985 25.8781 18.0016 25.8781C18.0047 25.8781 18.0015 25.8781 18.0046 25.8781H18.6796C18.7263 25.8781 18.7729 25.8781 18.8196 25.875C18.9409 26.4287 19.2146 27.0569 19.7278 27.511C19.2332 27.875 18.633 28.074 18.0016 28.074ZM14.2101 24.0088C14.5895 24.6589 15.1338 25.1845 15.7808 25.5111C15.7093 25.8999 15.5071 26.4877 14.9099 26.637C14.2754 26.7957 13.0157 27.2498 12.0422 27.8687C11.8556 27.6324 11.7001 27.2964 11.5881 26.9978C12.8664 26.4722 13.8493 25.368 14.207 24.0119L14.2101 24.0088ZM27.8364 27.8003C27.4974 27.9776 27.1273 28.0709 26.7478 28.0709C26.3684 28.0709 25.9951 27.9776 25.6561 27.8003C25.7307 27.6292 25.7929 27.4675 25.8427 27.3213C25.9298 27.3275 26.02 27.3306 26.1071 27.3306H26.6607C26.9904 27.3306 27.3139 27.2933 27.6218 27.2249C27.6778 27.396 27.7493 27.5919 27.8395 27.8034L27.8364 27.8003ZM26.6576 25.8812H26.104C24.4462 25.8812 23.0963 24.5313 23.0963 22.8735V22.1457C23.4758 22.0307 23.7463 21.8316 23.9205 21.6574C24.2844 21.2904 24.4399 20.8394 24.5052 20.5097C24.6483 20.4195 24.7758 20.3262 24.894 20.2266C26.0324 20.8767 27.261 21.0602 28.2843 21.0602C28.8099 21.0602 29.2827 21.0104 29.6591 20.9545L29.6653 22.8767C29.6653 24.5345 28.3154 25.8844 26.6576 25.8844V25.8812ZM29.0214 16.4165C29.1956 16.3916 29.7804 16.3014 30.3869 16.1086C30.3589 16.4196 30.2998 16.7369 30.1878 16.9826C29.9452 17.5145 29.9701 18.1147 30.25 18.5875C30.2874 18.6497 30.3744 18.8488 30.3744 19.3153C30.2593 19.3153 30.1536 19.3464 30.0572 19.3931C29.5844 19.5113 27.457 19.9654 25.6841 19.0043C25.6903 18.9763 25.6996 18.9483 25.7058 18.9203C25.8956 18.0463 25.513 17.275 25.2766 16.9048C25.261 16.4227 25.202 16.0246 25.1149 15.7011C27.2361 15.7913 28.6264 16.3605 28.6389 16.3667C28.7602 16.4165 28.8908 16.4352 29.0214 16.4165ZM12.5243 15.5861C12.7544 15.4616 12.9006 15.2159 12.9006 14.9515C12.9006 13.6483 14.1478 13.5114 14.3904 13.4959C14.5646 13.4866 14.7326 13.4181 14.857 13.2968C15.1525 13.0138 15.4075 12.7712 16.5397 12.7712C16.9969 12.7712 17.28 12.8365 17.4324 12.8894C17.5785 13.0169 17.7776 13.0978 17.9985 13.0978C18.2193 13.0978 18.409 13.02 18.5521 12.8987C18.6858 12.849 18.9658 12.7712 19.4572 12.7712C20.5893 12.7712 20.8444 13.0138 21.1399 13.2968C21.2643 13.415 21.4323 13.4866 21.6033 13.4959C21.8521 13.5114 23.0994 13.6483 23.0994 14.9515C23.0994 15.219 23.2456 15.4616 23.4757 15.5861C23.5255 15.6358 23.8272 15.9749 23.8272 17.1381C23.8272 17.303 23.8832 17.4616 23.9858 17.5922C24.0729 17.7011 24.3777 18.1925 24.2844 18.6155C24.2191 18.911 23.9547 19.1785 23.4975 19.4117C23.2518 19.5362 23.0963 19.7819 23.0994 20.0556C23.0931 20.3946 22.9656 20.7989 22.3809 20.7989C22.3747 20.7989 22.3684 20.7989 22.3622 20.7989V19.3215C22.3622 19.1287 22.2845 18.9452 22.1476 18.8084C21.6904 18.3511 21.4011 17.3434 21.3296 16.9919C21.2612 16.656 20.9657 16.4134 20.6204 16.4134C20.3001 16.4134 20.1259 16.1117 20.1103 16.0868C20.0046 15.8784 19.8055 15.7322 19.5723 15.6949C19.339 15.6607 19.1057 15.7384 18.9409 15.9064C18.4463 16.4134 18.2721 16.4134 18.0046 16.4134C18.0015 16.4134 17.9985 16.4134 17.9953 16.4134C17.9922 16.4134 17.9891 16.4134 17.986 16.4134C17.7185 16.4134 17.5443 16.4134 17.0498 15.9064C16.8849 15.7384 16.6517 15.6607 16.4184 15.6949C16.1851 15.7322 15.9861 15.8784 15.8803 16.0868C15.8803 16.0899 15.6968 16.4134 15.3702 16.4134C15.025 16.4134 14.7295 16.656 14.661 16.9919C14.5957 17.3185 14.3003 18.3511 13.8431 18.8084C13.7062 18.9452 13.6315 19.1287 13.6315 19.3215V20.7989C13.6315 20.7989 13.6191 20.7989 13.6129 20.7989C13.0281 20.7989 12.8975 20.3946 12.8944 20.0618C12.8944 19.785 12.742 19.533 12.4963 19.4086C12.0391 19.1785 11.7747 18.9141 11.7093 18.6186C11.616 18.2081 11.896 17.7353 12.008 17.5891C12.1106 17.4616 12.1666 17.2998 12.1666 17.135C12.1666 15.9748 12.4683 15.6327 12.5181 15.5829L12.5243 15.5861ZM6.36894 17.1568C6.36894 17.1568 6.38447 17.1568 6.39069 17.1568C6.71417 17.1568 6.95677 16.9453 7.04386 16.628C7.07185 16.5285 7.36424 15.6607 8.50885 15.6607C9.56014 15.6607 10.3906 15.7602 10.8571 15.8349C10.7887 16.1335 10.7421 16.4849 10.7296 16.9048C10.4932 17.275 10.1107 18.0463 10.3004 18.9203C10.3968 19.3558 10.6176 19.7414 10.9567 20.0742C10.3626 20.0338 9.25843 19.8161 8.35333 18.827C8.17915 18.6373 7.92097 18.5502 7.66903 18.6031C7.4171 18.6559 7.21494 18.8363 7.13407 19.079C7.09985 19.1754 6.76394 20.0152 5.6971 20.0431C5.65977 19.6077 5.63491 19.1194 5.63491 18.5937C5.63491 17.3185 6.22587 17.1723 6.37517 17.1568H6.36894ZM6.34092 21.4241C7.1185 21.2624 7.64104 20.8456 7.97695 20.4444C9.23975 21.4086 10.6021 21.533 11.2117 21.533C11.4014 21.533 11.5165 21.5206 11.5383 21.5206C11.6627 21.5081 11.7747 21.4614 11.8711 21.393C11.9333 21.4832 12.0049 21.5734 12.0888 21.6574C12.263 21.8347 12.5305 22.0307 12.913 22.1457V22.8735C12.913 24.5313 11.5632 25.8812 9.90538 25.8812H9.35173C7.69393 25.8812 6.34403 24.5313 6.34403 22.8735V21.4241H6.34092ZM9.34862 27.3276H9.90227C9.99247 27.3276 10.0795 27.3244 10.1666 27.3182C10.2164 27.4644 10.2786 27.6261 10.3532 27.7972C10.0142 27.9745 9.64409 28.0678 9.25841 28.0678C8.87273 28.0678 8.50882 27.9745 8.16979 27.7972C8.25999 27.5888 8.33155 27.3897 8.38754 27.2187C8.69857 27.2871 9.01892 27.3244 9.34862 27.3244V27.3276ZM6.48713 29.5048C6.83549 29.4426 7.13097 29.259 7.3798 29.0196C7.95521 29.3461 8.59591 29.5172 9.26152 29.5172C9.79028 29.5172 10.3035 29.4083 10.7794 29.1999C10.7451 29.3057 10.7234 29.4146 10.7234 29.5203V30.9791H4.89153V30.4659C4.98484 30.2326 5.65045 29.6572 6.48713 29.5017V29.5048Z" fill="#003641"/>
<path d="M23.0994 6.2115C23.2362 6.2115 23.3762 6.17106 23.5006 6.09019L25.6872 4.63454C26.02 4.41371 26.1102 3.96272 25.8894 3.62991C25.6685 3.29711 25.2175 3.2069 24.8847 3.42773L22.6982 4.88338C22.3654 5.10422 22.2752 5.55521 22.496 5.88801C22.6359 6.0964 22.8661 6.2115 23.0994 6.2115Z" fill="#003641"/>
<path d="M22.695 10.4634L24.8816 11.919C25.006 11.9999 25.1428 12.0404 25.2828 12.0404C25.5161 12.0404 25.7463 11.9284 25.8862 11.7169C26.1071 11.3841 26.0169 10.9331 25.6841 10.7122L23.4975 9.25659C23.1647 9.03576 22.7137 9.12596 22.4929 9.45877C22.272 9.79157 22.3622 10.2426 22.695 10.4634Z" fill="#003641"/>
<path d="M23.1118 7.67342C23.1118 8.07466 23.4353 8.39812 23.8365 8.39812H26.7385C27.1397 8.39812 27.4632 8.07466 27.4632 7.67342C27.4632 7.27219 27.1397 6.94873 26.7385 6.94873H23.8365C23.4353 6.94873 23.1118 7.27219 23.1118 7.67342Z" fill="#003641"/>
</svg>
