<svg width="36" height="36" viewBox="0 0 36 36" fill="none" xmlns="http://www.w3.org/2000/svg">
<path d="M20.4709 13.6462L27.9253 13.7018L24.283 9.71997L20.4709 13.6462Z" fill="white"/>
<path d="M13.7173 13.7884H19.7888L23.3045 10.2232L20.4154 6.94824L13.7173 13.7884Z" fill="#C9D200"/>
<path d="M6.44192 13.4054L14.9705 4.92627L18.1497 8.34632L12.6585 13.5011L6.44192 13.4054Z" fill="white"/>
<path d="M24.7028 20.9185H30.5305L30.4502 25.3046L24.7429 25.2059L24.7028 20.9185Z" fill="#49479D"/>
<path d="M4.52817 15.9243H28.7495V19.7456H24.3262V25.3696L29.0921 25.6289L28.7062 31.1695H4.2689L4.52817 15.9243Z" fill="#49479D"/>
<path d="M31.6756 18.9615H29.5088V13.8994C29.5088 13.5012 29.1847 13.1771 28.7865 13.1771H28.7525L25.0392 8.7662C24.9096 8.61187 24.7182 8.51927 24.5145 8.51001C24.3139 8.50383 24.1163 8.57791 23.9712 8.72299L23.5545 9.14278L20.616 6.18882C20.4802 6.053 20.2981 5.97583 20.1067 5.97583C19.9153 5.97583 19.7332 6.053 19.5974 6.18573L18.6282 7.15186L15.5816 4.01578C15.4458 3.87688 15.2637 3.79972 15.0692 3.79663C14.8779 3.79663 14.6896 3.87071 14.5537 4.00652L5.34924 13.1771H4.27197C3.87378 13.1771 3.54969 13.5012 3.54969 13.8994V31.225C3.54969 31.6232 3.87378 31.9473 4.27197 31.9473H28.7834C29.1816 31.9473 29.5057 31.6232 29.5057 31.225V26.1813H31.6726C32.0708 26.1813 32.3948 25.8572 32.3948 25.459V19.6869C32.3948 19.2887 32.0708 18.9646 31.6726 18.9646L31.6756 18.9615ZM24.4435 10.3003L26.8635 13.1771H21.5914L24.4404 10.3003H24.4435ZM20.1067 7.71981L22.5421 10.1676L19.5604 13.1771H14.6278L20.1067 7.71981ZM15.0569 5.54678L17.6065 8.17356L12.5814 13.1802H7.39879L15.0569 5.54678ZM28.0642 30.5027H4.99735V14.6217H5.95113H13.1771H28.0642V18.9615H24.4559C24.0577 18.9615 23.7336 19.2857 23.7336 19.6838V25.4559C23.7336 25.8541 24.0577 26.1782 24.4559 26.1782H28.0642V30.4996V30.5027ZM30.9533 24.7367H25.1782V20.4061H30.9533V24.7367Z" fill="#003641"/>
<path d="M28.0889 24.0268C28.8915 24.0268 29.5427 23.3755 29.5427 22.573C29.5427 21.7704 28.8915 21.1191 28.0889 21.1191C27.2864 21.1191 26.6351 21.7704 26.6351 22.573C26.6351 23.3755 27.2864 24.0268 28.0889 24.0268ZM28.0889 22.5637C28.0889 22.5637 28.0982 22.5668 28.0982 22.573C28.0982 22.5822 28.0796 22.5822 28.0796 22.573C28.0796 22.5668 28.0827 22.5637 28.0889 22.5637Z" fill="#003641"/>
</svg>
