<?xml version="1.0" encoding="UTF-8"?>
<svg id="Camada_2" data-name="Camada 2" xmlns="http://www.w3.org/2000/svg" version="1.1" viewBox="0 0 93.5 93.5">
  <defs>
    <style>
      .cls-1 {
        fill: #00353e;
      }

      .cls-1, .cls-2, .cls-3, .cls-4, .cls-5 {
        stroke-width: 0px;
      }

      .cls-2 {
        fill: #c7d306;
      }

      .cls-3 {
        fill: #76b82a;
      }

      .cls-4 {
        fill: #00a295;
      }

      .cls-5 {
        fill: #fff;
      }
    </style>
  </defs>
  <g>
    <path class="cls-4" d="M44.6,77.4c-1,0-1.8.5-2.2,1.4,0,0,0,0,0,.1,0,0,0,.2,0,.3h0s-.8,3.9-.8,3.9h-9.3c-.4-2.8-1-5.8-1.8-7.9h0s0,0,0,0c0,0,0,0,0-.2,0,0,0-.2-.1-.2s0-.1-.1-.2c0,0,0-.1-.1-.2s-.1-.1-.2-.2-.1,0-.2-.2-.1,0-.2-.1c0,0-.1,0-.2-.1,0,0-.2,0-.2,0,0,0,0,0-.1,0-5.7-1.7-7.7-2.9-10.6-7.2,0,0,0,0-.1-.1,0,0-.1-.1-.2-.2,0,0-.1,0-.2-.2,0,0-.1,0-.2-.2s-.1,0-.2-.1c0,0-.1,0-.2,0,0,0-.2,0-.2,0,0,0,0,0-.1,0-4.9-1.2-7.9-3.2-10.1-4.7-.3-.2-.6-.4-.9-.6-.7-.5-1.2-1.5-1.2-2.6v-6.8c6.3-1.4,9.8-8,10.6-9.9.1-.2.2-.4.3-.7,1.2-4.3,2.8-6.7,7.5-10.5,1-.8,1.1-2.3.3-3.3h0c-.1-.2-.3-.4-.4-.5-1.9-1.4-3.2-4.2-3.9-6.7,3,1.2,6.6,1.1,10.5,1,1,0,1.9,0,2.9,0,5.2,0,6,4,6.1,4.8.2,1.3,1.3,2.2,2.6,2,1.3-.1,2.2-1.3,2.1-2.6,0-.8-.3-1.7-.7-2.6,3.9-.6,8.4-.9,12.8-1,1.9,1.4,4.3,2.2,6.8,2.2s3.7-.5,5.3-1.3c18.4,1.9,21,20.3,21.4,25,0,1.1-.5,2.2-1.7,2.5-.6.2-1.2,0-1.8-.2s-.9-.8-1.1-1.5c-.2-.8,0-1.6.5-2.2.8-1,.8-2.4-.2-3.3-1-.8-2.4-.8-3.3.2-1.5,1.8-2.1,4.1-1.5,6.4.5,1.8,1.6,3.3,3.2,4.3,1.4.8,2.9,1.1,4.5.9.3,0,.6,0,.8-.2.2,0,.3,0,.5-.2-.7,14.9-3.8,24.1-6.5,29.4h-11c.3-7.4-2.2-10.8-2.6-11.2,0,0-.1-.1-.2-.2h0c-.9-1-2.4-.9-3.3,0-.9.9-.9,2.3,0,3.2,0,.2.3.6.6,1.2-4.4.8-14.3,1.2-21.2,1.2h0Z"/>
    <path class="cls-3" d="M32.7,88.9c0-.3,0-.7,0-1h7.8l-.2,1h-7.5,0ZM70.6,88.9c0-.3.1-.7.2-1h8.5c-.3.4-.7.8-.9,1h-7.9Z"/>
    <path class="cls-2" d="M62.1,4.7c3.8,0,7,3.1,7,7s-3.1,7-7,7-7-3.1-7-7,3.1-7,7-7Z"/>
    <path class="cls-5" d="M56.5,13.1c0-4.2,3.4-7.6,7.6-7.6s1.2,0,1.8.2c-1.1-.7-2.4-1.1-3.8-1.1-3.8,0-7,3.1-7,7s1,4,2.5,5.3c-.7-1.1-1-2.4-1-3.8Z"/>
    <g>
      <path class="cls-5" d="M67.4,22c-.7.4-1.5.7-2.3.9,7.9,1.2,15.3,4.4,20.5,12-2.8-5.9-8.2-11.8-18.2-12.9Z"/>
      <path class="cls-5" d="M42.4,22c.1.2.2.5.3.7,4.6-.2,9.6-.6,14.7-.5-.7-.3-1.5-.7-2.1-1.2-4.5,0-9,.4-12.8,1Z"/>
      <path class="cls-5" d="M32.4,20.4c-1,0-1.9,0-2.9,0-3.8,0-7.5.2-10.5-1,.1.5.3,1.1.5,1.6,4.6,1.8,13.4-.6,18.1,1.8-.8-1.2-2.3-2.5-5.2-2.5h0Z"/>
      <path class="cls-5" d="M29.8,74.5s0,0,0,.1c0,0,0,.1.1.2,0,0,0,.2.1.2,0,0,0,0,0,.2,0,0,0,0,0,0h0c.7,2.2,1.4,5.1,1.8,7.9h2.1c-.2-1.5-.6-4-1.1-6.1-.6-2.4-2.4-2.6-3.2-2.5h0Z"/>
      <path class="cls-5" d="M69.5,71.5c-.9-.6-1.6-.6-2.1-.3.4,0,.7.3,1,.6h0c0,.1.1.2.2.3.4.4,2.9,3.8,2.6,11.2h2c-.1-2.2-.8-10-3.8-11.7h0Z"/>
    </g>
  </g>
  <g>
    <path class="cls-1" d="M93.4,45.8h0c-.3-2.8-1.1-7.3-3.2-12-3.7-8.4-10-13.8-18.4-15.8,1.2-1.8,1.9-4,1.9-6.4C73.7,5.2,68.5,0,62.1,0s-11.6,5.2-11.6,11.6.4,3.4,1.1,4.8c-4.4.2-8.8.7-12.3,1.3-1.6-1.2-3.8-2-6.8-2s-2,0-3,0c-3.8,0-7.5.2-9.5-1.2-1.3-.8-2.9-.8-4.1,0-1.3.9-1.9,2.4-1.7,3.9.3,1.5,1.3,6,4.1,9.4-3.4,3-5.6,6-7,10.8,0,0,0,0,0,0,0,0-3.2,7.8-8.9,7.8S0,47.7,0,49v8.9c0,2.7,1.3,5.2,3.3,6.5.2.2.5.3.8.5,2.2,1.5,5.4,3.6,10.6,5.1,3.2,4.5,6,6.2,11.5,8,1.2,4,2,10.5,2,13.4s1,2.3,2.3,2.3h11.6c1.1,0,2-.8,2.3-1.8l2-9.7c4.6,0,14.7-.3,20.2-1.3.1,2.4,0,5.7-1.2,9.9-.2.7,0,1.4.4,2s1.1.9,1.8.9h11.7c.5,0,1-.2,1.5-.5.5-.4,12.7-10.5,12.7-45s0-.9-.2-2.3ZM62.1,4.6c3.9,0,7,3.1,7,7s-3.1,7-7,7-7-3.1-7-7,3.1-7,7-7ZM40.2,88.9h-7.5c0-.3,0-.7,0-1h7.8l-.2,1ZM78.5,88.9h-7.9c0-.3.1-.7.2-1h8.5c-.4.5-.7.8-.9,1ZM84.5,42.3c-1-.8-2.4-.8-3.3.2-1.5,1.8-2.1,4.1-1.5,6.4.5,1.8,1.6,3.3,3.2,4.3,1.4.8,2.9,1.1,4.5.9.3,0,.6,0,.8-.2.2,0,.3,0,.5-.1-.6,14.9-3.8,24.1-6.5,29.4h-11c.3-7.4-2.2-10.8-2.6-11.2,0,0-.1-.1-.2-.2h0c-.9-1-2.4-.9-3.3,0-.9.9-.9,2.3,0,3.2,0,.1.3.5.6,1.2-4.4.8-14.3,1.2-21.1,1.2h0c-1,0-1.8.5-2.2,1.4,0,0,0,.1,0,.1,0,0,0,.2,0,.3h0s-.8,3.9-.8,3.9h-9.3c-.4-2.8-1-5.8-1.8-7.9,0,0,0,0,0,0,0,0,0,0,0-.2,0,0,0-.2-.1-.2,0,0,0-.1-.1-.2,0,0,0-.1-.1-.2,0,0-.1-.1-.2-.2,0,0,0,0-.2-.1,0,0-.1,0-.2-.1,0,0-.1,0-.2-.1,0,0-.2,0-.2-.1,0,0,0,0-.1,0-5.7-1.7-7.7-2.9-10.6-7.2,0,0,0,0-.1-.1,0,0,0-.1-.2-.2s-.1,0-.2-.2c0,0-.1,0-.2-.1,0,0-.1,0-.2-.1,0,0-.1,0-.2-.1,0,0-.2,0-.2,0,0,0,0,0-.1,0-4.9-1.2-7.9-3.2-10-4.7-.3-.2-.6-.4-.9-.6-.7-.5-1.2-1.5-1.2-2.6v-6.8c6.3-1.4,9.8-8,10.6-9.9.1-.2.2-.4.3-.7,1.2-4.3,2.8-6.7,7.5-10.5,1-.8,1.1-2.3.3-3.3,0,0,0,0,0,0-.1-.1-.3-.3-.4-.4-1.9-1.4-3.2-4.2-3.9-6.7,3,1.2,6.6,1.1,10.5,1,1,0,1.9,0,2.9,0,5.2,0,6,3.9,6.1,4.8.2,1.3,1.3,2.2,2.6,2,1.3-.1,2.2-1.3,2.1-2.6,0-.8-.3-1.7-.7-2.7,3.9-.6,8.4-.9,12.8-.9,1.9,1.4,4.3,2.2,6.8,2.2s3.7-.5,5.3-1.3c18.4,1.9,21,20.3,21.4,25,0,1.1-.5,2.2-1.7,2.5-.6.2-1.2,0-1.8-.2-.5-.3-.9-.8-1.1-1.5-.2-.8,0-1.6.5-2.2.9-1,.8-2.4-.2-3.3Z"/>
    <path class="cls-1" d="M72.3,28.3c-4.6-1.7-9.7-2.6-15.1-2.6s0,0-.1,0c-3.1,0-6.2.2-9.1.5-1.3.2-2.2,1.3-2,2.6.1,1.2,1.1,2,2.3,2,0,0,.2,0,.3,0,2.8-.3,5.7-.5,8.7-.5h0c4.9,0,9.4.8,13.4,2.3.3,0,.6.1.8.1.9,0,1.8-.6,2.2-1.5.5-1.2-.2-2.5-1.4-3Z"/>
    <circle class="cls-1" cx="25.7" cy="42.1" r="2.8"/>
  </g>
</svg>